<?xml version="1.0" encoding="UTF-8" standalone="no"?><svg xmlns="http://www.w3.org/2000/svg" xmlns:xlink="http://www.w3.org/1999/xlink" clip-rule="evenodd" stroke-miterlimit="4.00" viewBox="0 0 1024 768"><desc>SVG generated by Keynote</desc><defs></defs><g transform="matrix(1.00, 0.00, -0.00, -1.00, 0.0, 768.0)"><path d="M 0.0 768.0 L 1024.0 768.0 L 1024.0 0.0 L 0.0 0.0 Z M 0.0 768.0 " fill="#000000"></path><g><clipPath id="clip-82"><path d="M 96.2 614.9 L 224.1 614.9 L 224.1 487.0 L 96.2 487.0 Z M 96.2 614.9 "></path></clipPath><g clip-path="url(#clip-82)"><image xlink:href="../../9FCDA7CD-4AFF-4C17-9F56-645EF325956F/assets/1FFE5498205649035F9839696CCAEA03.jpeg" width="129.00" height="129.00" transform="matrix(0.99, 0.00, -0.00, -0.99, 96.2, 614.9)"></image><path d="M 96.2 614.9 L 224.1 614.9 L 224.1 487.0 L 96.2 487.0 Z M 96.2 614.9 " fill="#04599E" fill-opacity="0.85"></path></g></g><g><clipPath id="clip-83"><path d="M 93.7 487.0 L 226.6 487.0 L 226.6 614.9 L 93.7 614.9 Z M 93.7 487.0 "></path></clipPath><g clip-path="url(#clip-83)"><text xml:space="preserve" font-family="Helvetica-Light" font-size="26.0" fill="#FEFFFF" transform="matrix(1.00, 0.00, -0.00, -1.00, 151.0, 541.0)">A</text></g></g><g><clipPath id="clip-84"><path d="M 423.3 614.9 L 551.2 614.9 L 551.2 487.0 L 423.3 487.0 Z M 423.3 614.9 "></path></clipPath><g clip-path="url(#clip-84)"><image xlink:href="../../9FCDA7CD-4AFF-4C17-9F56-645EF325956F/assets/1FFE5498205649035F9839696CCAEA03.jpeg" width="129.00" height="129.00" transform="matrix(0.99, 0.00, -0.00, -0.99, 423.3, 614.9)"></image><path d="M 423.3 614.9 L 551.2 614.9 L 551.2 487.0 L 423.3 487.0 Z M 423.3 614.9 " fill="#CA7B13" fill-opacity="0.80"></path></g></g><g><clipPath id="clip-85"><path d="M 420.8 487.0 L 553.7 487.0 L 553.7 614.9 L 420.8 614.9 Z M 420.8 487.0 "></path></clipPath><g clip-path="url(#clip-85)"><text xml:space="preserve" font-family="Helvetica-Light" font-size="26.0" fill="#FEFFFF" transform="matrix(1.00, 0.00, -0.00, -1.00, 461.0, 541.0)">B</text><text xml:space="preserve" font-family="Helvetica-Light" font-size="26.0" fill="#FEFFFF" transform="matrix(1.00, 0.00, -0.00, -1.00, 478.3, 541.0)">@</text><text xml:space="preserve" font-family="Helvetica-Light" font-size="26.0" fill="#FEFFFF" transform="matrix(1.00, 0.00, -0.00, -1.00, 499.1, 541.0)">1</text></g></g><g><clipPath id="clip-86"><path d="M 750.3 614.9 L 878.2 614.9 L 878.2 487.0 L 750.3 487.0 Z M 750.3 614.9 "></path></clipPath><g clip-path="url(#clip-86)"><image xlink:href="../../9FCDA7CD-4AFF-4C17-9F56-645EF325956F/assets/1FFE5498205649035F9839696CCAEA03.jpeg" width="129.00" height="129.00" transform="matrix(0.99, 0.00, -0.00, -0.99, 750.3, 614.9)"></image><path d="M 750.3 614.9 L 878.2 614.9 L 878.2 487.0 L 750.3 487.0 Z M 750.3 614.9 " fill="#860E00" fill-opacity="0.88"></path></g></g><g><clipPath id="clip-87"><path d="M 747.8 487.0 L 880.7 487.0 L 880.7 614.9 L 747.8 614.9 Z M 747.8 487.0 "></path></clipPath><g clip-path="url(#clip-87)"><text xml:space="preserve" font-family="Helvetica-Light" font-size="26.0" fill="#FEFFFF" transform="matrix(1.00, 0.00, -0.00, -1.00, 787.0, 541.0)">D</text><text xml:space="preserve" font-family="Helvetica-Light" font-size="26.0" fill="#FEFFFF" transform="matrix(1.00, 0.00, -0.00, -1.00, 805.8, 541.0)">@</text><text xml:space="preserve" font-family="Helvetica-Light" font-size="26.0" fill="#FEFFFF" transform="matrix(1.00, 0.00, -0.00, -1.00, 826.6, 541.0)">1</text></g></g><g><clipPath id="clip-88"><path d="M 423.3 339.7 L 551.2 339.7 L 551.2 211.8 L 423.3 211.8 Z M 423.3 339.7 "></path></clipPath><g clip-path="url(#clip-88)"><image xlink:href="../../9FCDA7CD-4AFF-4C17-9F56-645EF325956F/assets/1FFE5498205649035F9839696CCAEA03.jpeg" width="129.00" height="129.00" transform="matrix(0.99, 0.00, -0.00, -0.99, 423.3, 339.7)"></image><path d="M 423.3 339.7 L 551.2 339.7 L 551.2 211.8 L 423.3 211.8 Z M 423.3 339.7 " fill="#00A6AC" fill-opacity="0.85"></path></g></g><g><clipPath id="clip-89"><path d="M 420.8 211.8 L 553.7 211.8 L 553.7 339.7 L 420.8 339.7 Z M 420.8 211.8 "></path></clipPath><g clip-path="url(#clip-89)"><text xml:space="preserve" font-family="Helvetica-Light" font-size="26.0" fill="#FEFFFF" transform="matrix(1.00, 0.00, -0.00, -1.00, 460.0, 266.0)">C</text><text xml:space="preserve" font-family="Helvetica-Light" font-size="26.0" fill="#FEFFFF" transform="matrix(1.00, 0.00, -0.00, -1.00, 478.8, 266.0)">@</text><text xml:space="preserve" font-family="Helvetica-Light" font-size="26.0" fill="#FEFFFF" transform="matrix(1.00, 0.00, -0.00, -1.00, 499.6, 266.0)">1</text></g></g><g><clipPath id="clip-90"><path d="M 750.3 339.7 L 878.2 339.7 L 878.2 211.8 L 750.3 211.8 Z M 750.3 339.7 "></path></clipPath><g clip-path="url(#clip-90)"><image xlink:href="../../9FCDA7CD-4AFF-4C17-9F56-645EF325956F/assets/1FFE5498205649035F9839696CCAEA03.jpeg" width="129.00" height="129.00" transform="matrix(0.99, 0.00, -0.00, -0.99, 750.3, 339.7)"></image><path d="M 750.3 339.7 L 878.2 339.7 L 878.2 211.8 L 750.3 211.8 Z M 750.3 339.7 " fill="#860E00" fill-opacity="0.88"></path></g></g><g><clipPath id="clip-91"><path d="M 747.8 211.8 L 880.7 211.8 L 880.7 339.7 L 747.8 339.7 Z M 747.8 211.8 "></path></clipPath><g clip-path="url(#clip-91)"><text xml:space="preserve" font-family="Helvetica-Light" font-size="26.0" fill="#FEFFFF" transform="matrix(1.00, 0.00, -0.00, -1.00, 787.0, 266.0)">D</text><text xml:space="preserve" font-family="Helvetica-Light" font-size="26.0" fill="#FEFFFF" transform="matrix(1.00, 0.00, -0.00, -1.00, 805.8, 266.0)">@</text><text xml:space="preserve" font-family="Helvetica-Light" font-size="26.0" fill="#FEFFFF" transform="matrix(1.00, 0.00, -0.00, -1.00, 826.6, 266.0)">2</text></g></g><path d="M 0.0 0.0 L 184.2 0.0 L 185.2 0.0 " fill="none" stroke="#FEFFFE" stroke-width="2.00" transform="matrix(1.00, 0.00, 0.00, -1.00, 226.8, 552.6)"></path><path d="M 411.0 547.8 L 420.6 552.6 L 411.0 557.4 Z M 411.0 547.8 " fill="#FEFFFE"></path><path d="M 0.0 0.0 L 184.2 0.0 L 185.2 0.0 " fill="none" stroke="#FEFFFE" stroke-width="2.00" transform="matrix(1.00, 0.00, 0.00, -1.00, 553.8, 552.6)"></path><path d="M 738.1 547.8 L 747.7 552.6 L 738.1 557.4 Z M 738.1 547.8 " fill="#FEFFFE"></path><path d="M 0.0 0.0 L 184.2 0.0 L 185.2 0.0 " fill="none" stroke="#FEFFFE" stroke-width="2.00" transform="matrix(1.00, 0.00, 0.00, -1.00, 553.8, 275.8)"></path><path d="M 738.1 271.0 L 747.7 275.8 L 738.1 280.6 Z M 738.1 271.0 " fill="#FEFFFE"></path><path d="M 0.0 0.0 L 272.6 0.0 L 274.6 0.0 " fill="none" stroke="#FF312E" stroke-width="4.00" transform="matrix(0.67, -0.75, -0.75, -0.67, 227.2, 488.5)"></path><path d="M 402.6 279.6 L 420.1 272.7 L 415.1 290.8 Z M 402.6 279.6 " fill="#FF312E"></path></g></svg>