<?xml version="1.0" encoding="UTF-8" standalone="no"?><svg xmlns="http://www.w3.org/2000/svg" xmlns:xlink="http://www.w3.org/1999/xlink" clip-rule="evenodd" stroke-miterlimit="4.00" viewBox="0 0 131 131"><desc>SVG generated by Keynote</desc><defs></defs><g transform="matrix(1.00, 0.00, -0.00, -1.00, 0.0, 131.0)"><g><clipPath id="clip-14"><path d="M 1.3 129.7 L 129.2 129.7 L 129.2 1.8 L 1.3 1.8 Z M 1.3 129.7 "></path></clipPath><g clip-path="url(#clip-14)"><image xlink:href="../../9FCDA7CD-4AFF-4C17-9F56-645EF325956F/assets/1FFE5498205649035F9839696CCAEA03.jpeg" width="129.00" height="129.00" transform="matrix(0.99, 0.00, -0.00, -0.99, 1.3, 129.7)"></image><path d="M 1.3 129.7 L 129.2 129.7 L 129.2 1.8 L 1.3 1.8 Z M 1.3 129.7 " fill="#860E00" fill-opacity="0.88"></path></g></g><g><clipPath id="clip-15"><path d="M -1.2 1.8 L 131.7 1.8 L 131.7 129.7 L -1.2 129.7 Z M -1.2 1.8 "></path></clipPath><g clip-path="url(#clip-15)"><text xml:space="preserve" font-family="Helvetica-Light" font-size="26.0" fill="#FEFFFF" transform="matrix(1.00, 0.00, -0.00, -1.00, 38.0, 56.0)">D</text><text xml:space="preserve" font-family="Helvetica-Light" font-size="26.0" fill="#FEFFFF" transform="matrix(1.00, 0.00, -0.00, -1.00, 56.8, 56.0)">@</text><text xml:space="preserve" font-family="Helvetica-Light" font-size="26.0" fill="#FEFFFF" transform="matrix(1.00, 0.00, -0.00, -1.00, 77.6, 56.0)">2</text></g></g></g></svg>