<?xml version="1.0" encoding="UTF-8" standalone="no"?><svg xmlns="http://www.w3.org/2000/svg" xmlns:xlink="http://www.w3.org/1999/xlink" clip-rule="evenodd" stroke-miterlimit="4.00" viewBox="0 0 1024 768"><desc>SVG generated by Keynote</desc><defs></defs><g transform="matrix(1.00, 0.00, -0.00, -1.00, 0.0, 768.0)"><path d="M 0.0 768.0 L 1024.0 768.0 L 1024.0 0.0 L 0.0 0.0 Z M 0.0 768.0 " fill="#000000"></path><image xlink:href="../../DD34CB27-837B-4ED0-9D38-7B3B47189383/assets/1982A5029D24E828DD45113E3F942EC9.jpeg" width="729.00" height="768.00" transform="matrix(1.01, 0.00, -0.00, -1.00, 294.0, 769.0)"></image><text xml:space="preserve" font-family="Helvetica-Light" font-size="50.0" fill="#FEFFFF" transform="matrix(1.00, 0.00, -0.00, -1.00, 44.9, 706.9)">T</text><text xml:space="preserve" font-family="Helvetica-Light" font-size="50.0" fill="#FEFFFF" transform="matrix(1.00, 0.00, -0.00, -1.00, 72.7, 706.9)">h</text><text xml:space="preserve" font-family="Helvetica-Light" font-size="50.0" fill="#FEFFFF" transform="matrix(1.00, 0.00, -0.00, -1.00, 100.5, 706.9)">e</text><text xml:space="preserve" font-family="Helvetica-Light" font-size="50.0" fill="#FEFFFF" transform="matrix(1.00, 0.00, -0.00, -1.00, 128.3, 706.9)"> </text><text xml:space="preserve" font-family="Helvetica-Light" font-size="50.0" fill="#FEFFFF" transform="matrix(1.00, 0.00, -0.00, -1.00, 142.2, 706.9)">L</text><text xml:space="preserve" font-family="Helvetica-Light" font-size="50.0" fill="#FEFFFF" transform="matrix(1.00, 0.00, -0.00, -1.00, 170.0, 706.9)">a</text><text xml:space="preserve" font-family="Helvetica-Light" font-size="50.0" fill="#FEFFFF" transform="matrix(1.00, 0.00, -0.00, -1.00, 197.8, 706.9)">n</text><text xml:space="preserve" font-family="Helvetica-Light" font-size="50.0" fill="#FEFFFF" transform="matrix(1.00, 0.00, -0.00, -1.00, 225.6, 706.9)">g</text><text xml:space="preserve" font-family="Helvetica-Light" font-size="50.0" fill="#FEFFFF" transform="matrix(1.00, 0.00, -0.00, -1.00, 256.2, 706.9)">u</text><text xml:space="preserve" font-family="Helvetica-Light" font-size="50.0" fill="#FEFFFF" transform="matrix(1.00, 0.00, -0.00, -1.00, 284.0, 706.9)">a</text><text xml:space="preserve" font-family="Helvetica-Light" font-size="50.0" fill="#FEFFFF" transform="matrix(1.00, 0.00, -0.00, -1.00, 311.8, 706.9)">g</text><text xml:space="preserve" font-family="Helvetica-Light" font-size="50.0" fill="#FEFFFF" transform="matrix(1.00, 0.00, -0.00, -1.00, 342.3, 706.9)">e</text><text xml:space="preserve" font-family="Helvetica-Light" font-size="50.0" fill="#FEFFFF" transform="matrix(1.00, 0.00, -0.00, -1.00, 370.1, 706.9)"> </text><text xml:space="preserve" font-family="Helvetica-Light" font-size="50.0" fill="#FEFFFF" transform="matrix(1.00, 0.00, -0.00, -1.00, 384.0, 706.9)">o</text><text xml:space="preserve" font-family="Helvetica-Light" font-size="50.0" fill="#FEFFFF" transform="matrix(1.00, 0.00, -0.00, -1.00, 411.8, 706.9)">f</text><text xml:space="preserve" font-family="Helvetica-Light" font-size="50.0" fill="#FEFFFF" transform="matrix(1.00, 0.00, -0.00, -1.00, 425.7, 706.9)"> </text><text xml:space="preserve" font-family="Helvetica-Light" font-size="50.0" fill="#FEFFFF" transform="matrix(1.00, 0.00, -0.00, -1.00, 439.6, 706.9)">t</text><text xml:space="preserve" font-family="Helvetica-Light" font-size="50.0" fill="#FEFFFF" transform="matrix(1.00, 0.00, -0.00, -1.00, 453.5, 706.9)">h</text><text xml:space="preserve" font-family="Helvetica-Light" font-size="50.0" fill="#FEFFFF" transform="matrix(1.00, 0.00, -0.00, -1.00, 481.3, 706.9)">e</text><text xml:space="preserve" font-family="Helvetica-Light" font-size="50.0" fill="#FEFFFF" transform="matrix(1.00, 0.00, -0.00, -1.00, 509.1, 706.9)"> </text><text xml:space="preserve" font-family="Helvetica-Light" font-size="50.0" fill="#FEFFFF" transform="matrix(1.00, 0.00, -0.00, -1.00, 523.0, 706.9)">S</text><text xml:space="preserve" font-family="Helvetica-Light" font-size="50.0" fill="#FEFFFF" transform="matrix(1.00, 0.00, -0.00, -1.00, 553.6, 706.9)">y</text><text xml:space="preserve" font-family="Helvetica-Light" font-size="50.0" fill="#FEFFFF" transform="matrix(1.00, 0.00, -0.00, -1.00, 578.6, 706.9)">s</text><text xml:space="preserve" font-family="Helvetica-Light" font-size="50.0" fill="#FEFFFF" transform="matrix(1.00, 0.00, -0.00, -1.00, 603.6, 706.9)">t</text><text xml:space="preserve" font-family="Helvetica-Light" font-size="50.0" fill="#FEFFFF" transform="matrix(1.00, 0.00, -0.00, -1.00, 617.5, 706.9)">e</text><text xml:space="preserve" font-family="Helvetica-Light" font-size="50.0" fill="#FEFFFF" transform="matrix(1.00, 0.00, -0.00, -1.00, 645.3, 706.9)">m</text><text xml:space="preserve" font-family="Helvetica-Light" font-size="50.0" fill="#FEFFFF" transform="matrix(1.00, 0.00, -0.00, -1.00, 686.9, 706.9)"> </text><text xml:space="preserve" font-family="Helvetica-Light" font-size="36.0" fill="#FEFFFF" transform="matrix(1.00, 0.00, -0.00, -1.00, 486.8, 660.7)">H</text><text xml:space="preserve" font-family="Helvetica-Light" font-size="36.0" fill="#FEFFFF" transform="matrix(1.00, 0.00, -0.00, -1.00, 512.8, 660.7)">i</text><text xml:space="preserve" font-family="Helvetica-Light" font-size="36.0" fill="#FEFFFF" transform="matrix(1.00, 0.00, -0.00, -1.00, 520.8, 660.7)">c</text><text xml:space="preserve" font-family="Helvetica-Light" font-size="36.0" fill="#FEFFFF" transform="matrix(1.00, 0.00, -0.00, -1.00, 540.8, 660.7)">k</text><text xml:space="preserve" font-family="Helvetica-Light" font-size="36.0" fill="#FEFFFF" transform="matrix(1.00, 0.00, -0.00, -1.00, 558.8, 660.7)">e</text><text xml:space="preserve" font-family="Helvetica-Light" font-size="36.0" fill="#FEFFFF" transform="matrix(1.00, 0.00, -0.00, -1.00, 578.8, 660.7)">y</text><text xml:space="preserve" font-family="Helvetica-Light" font-size="36.0" fill="#FEFFFF" transform="matrix(1.00, 0.00, -0.00, -1.00, 596.8, 660.7)"> </text><text xml:space="preserve" font-family="Helvetica-Light" font-size="36.0" fill="#FEFFFF" transform="matrix(1.00, 0.00, -0.00, -1.00, 606.8, 660.7)">2</text><text xml:space="preserve" font-family="Helvetica-Light" font-size="36.0" fill="#FEFFFF" transform="matrix(1.00, 0.00, -0.00, -1.00, 626.9, 660.7)">0</text><text xml:space="preserve" font-family="Helvetica-Light" font-size="36.0" fill="#FEFFFF" transform="matrix(1.00, 0.00, -0.00, -1.00, 646.9, 660.7)">1</text><text xml:space="preserve" font-family="Helvetica-Light" font-size="36.0" fill="#FEFFFF" transform="matrix(1.00, 0.00, -0.00, -1.00, 666.9, 660.7)">2</text><text xml:space="preserve" font-family="Helvetica-Light" font-size="60.0" fill="#FEFFFF" transform="matrix(1.00, 0.00, -0.00, -1.00, 54.0, 505.0)">“</text><text xml:space="preserve" font-family="Helvetica-Light" font-size="60.0" fill="#FEFFFF" transform="matrix(1.00, 0.00, -0.00, -1.00, 77.3, 505.0)">T</text><text xml:space="preserve" font-family="Helvetica-Light" font-size="60.0" fill="#FEFFFF" transform="matrix(1.00, 0.00, -0.00, -1.00, 105.2, 505.0)">r</text><text xml:space="preserve" font-family="Helvetica-Light" font-size="60.0" fill="#FEFFFF" transform="matrix(1.00, 0.00, -0.00, -1.00, 126.2, 505.0)">y</text><text xml:space="preserve" font-family="Helvetica-Light" font-size="60.0" fill="#FEFFFF" transform="matrix(1.00, 0.00, -0.00, -1.00, 156.2, 505.0)"> </text><text xml:space="preserve" font-family="Helvetica-Light" font-size="60.0" fill="#FEFFFF" transform="matrix(1.00, 0.00, -0.00, -1.00, 172.9, 505.0)">t</text><text xml:space="preserve" font-family="Helvetica-Light" font-size="60.0" fill="#FEFFFF" transform="matrix(1.00, 0.00, -0.00, -1.00, 189.6, 505.0)">o</text><text xml:space="preserve" font-family="Helvetica-Light" font-size="60.0" fill="#FEFFFF" transform="matrix(1.00, 0.00, -0.00, -1.00, 223.0, 505.0)"> </text><text xml:space="preserve" font-family="Helvetica-Light" font-size="60.0" fill="#FEFFFF" transform="matrix(1.00, 0.00, -0.00, -1.00, 239.6, 505.0)">a</text><text xml:space="preserve" font-family="Helvetica-Light" font-size="60.0" fill="#FEFFFF" transform="matrix(1.00, 0.00, -0.00, -1.00, 273.0, 505.0)">v</text><text xml:space="preserve" font-family="Helvetica-Light" font-size="60.0" fill="#FEFFFF" transform="matrix(1.00, 0.00, -0.00, -1.00, 303.0, 505.0)">o</text><text xml:space="preserve" font-family="Helvetica-Light" font-size="60.0" fill="#FEFFFF" transform="matrix(1.00, 0.00, -0.00, -1.00, 336.4, 505.0)">i</text><text xml:space="preserve" font-family="Helvetica-Light" font-size="60.0" fill="#FEFFFF" transform="matrix(1.00, 0.00, -0.00, -1.00, 349.7, 505.0)">d</text><text xml:space="preserve" font-family="Helvetica-Light" font-size="60.0" fill="#FEFFFF" transform="matrix(1.00, 0.00, -0.00, -1.00, 386.3, 505.0)"> </text><text xml:space="preserve" font-family="Helvetica-Light" font-size="60.0" fill="#FEFFFF" transform="matrix(1.00, 0.00, -0.00, -1.00, 81.0, 433.0)">b</text><text xml:space="preserve" font-family="Helvetica-Light" font-size="60.0" fill="#FEFFFF" transform="matrix(1.00, 0.00, -0.00, -1.00, 117.7, 433.0)">e</text><text xml:space="preserve" font-family="Helvetica-Light" font-size="60.0" fill="#FEFFFF" transform="matrix(1.00, 0.00, -0.00, -1.00, 151.0, 433.0)">s</text><text xml:space="preserve" font-family="Helvetica-Light" font-size="60.0" fill="#FEFFFF" transform="matrix(1.00, 0.00, -0.00, -1.00, 181.0, 433.0)">p</text><text xml:space="preserve" font-family="Helvetica-Light" font-size="60.0" fill="#FEFFFF" transform="matrix(1.00, 0.00, -0.00, -1.00, 217.7, 433.0)">o</text><text xml:space="preserve" font-family="Helvetica-Light" font-size="60.0" fill="#FEFFFF" transform="matrix(1.00, 0.00, -0.00, -1.00, 251.0, 433.0)">k</text><text xml:space="preserve" font-family="Helvetica-Light" font-size="60.0" fill="#FEFFFF" transform="matrix(1.00, 0.00, -0.00, -1.00, 281.0, 433.0)">e</text><text xml:space="preserve" font-family="Helvetica-Light" font-size="60.0" fill="#FEFFFF" transform="matrix(1.00, 0.00, -0.00, -1.00, 314.4, 433.0)"> </text><text xml:space="preserve" font-family="Helvetica-Light" font-size="60.0" fill="#FEFFFF" transform="matrix(1.00, 0.00, -0.00, -1.00, 81.0, 361.0)">p</text><text xml:space="preserve" font-family="Helvetica-Light" font-size="60.0" fill="#FEFFFF" transform="matrix(1.00, 0.00, -0.00, -1.00, 117.7, 361.0)">r</text><text xml:space="preserve" font-family="Helvetica-Light" font-size="60.0" fill="#FEFFFF" transform="matrix(1.00, 0.00, -0.00, -1.00, 136.6, 361.0)">o</text><text xml:space="preserve" font-family="Helvetica-Light" font-size="60.0" fill="#FEFFFF" transform="matrix(1.00, 0.00, -0.00, -1.00, 169.9, 361.0)">t</text><text xml:space="preserve" font-family="Helvetica-Light" font-size="60.0" fill="#FEFFFF" transform="matrix(1.00, 0.00, -0.00, -1.00, 186.6, 361.0)">o</text><text xml:space="preserve" font-family="Helvetica-Light" font-size="60.0" fill="#FEFFFF" transform="matrix(1.00, 0.00, -0.00, -1.00, 220.0, 361.0)">c</text><text xml:space="preserve" font-family="Helvetica-Light" font-size="60.0" fill="#FEFFFF" transform="matrix(1.00, 0.00, -0.00, -1.00, 253.3, 361.0)">o</text><text xml:space="preserve" font-family="Helvetica-Light" font-size="60.0" fill="#FEFFFF" transform="matrix(1.00, 0.00, -0.00, -1.00, 286.7, 361.0)">l</text><text xml:space="preserve" font-family="Helvetica-Light" font-size="60.0" fill="#FEFFFF" transform="matrix(1.00, 0.00, -0.00, -1.00, 300.0, 361.0)">s</text><text xml:space="preserve" font-family="Helvetica-Light" font-size="60.0" fill="#FEFFFF" transform="matrix(1.00, 0.00, -0.00, -1.00, 330.0, 361.0)"> </text><text xml:space="preserve" font-family="Helvetica-Light" font-size="60.0" fill="#FEFFFF" transform="matrix(1.00, 0.00, -0.00, -1.00, 81.0, 289.0)">a</text><text xml:space="preserve" font-family="Helvetica-Light" font-size="60.0" fill="#FEFFFF" transform="matrix(1.00, 0.00, -0.00, -1.00, 114.4, 289.0)">n</text><text xml:space="preserve" font-family="Helvetica-Light" font-size="60.0" fill="#FEFFFF" transform="matrix(1.00, 0.00, -0.00, -1.00, 147.7, 289.0)">d</text><text xml:space="preserve" font-family="Helvetica-Light" font-size="60.0" fill="#FEFFFF" transform="matrix(1.00, 0.00, -0.00, -1.00, 184.4, 289.0)"> </text><text xml:space="preserve" font-family="Helvetica-Light" font-size="60.0" fill="#FEFFFF" transform="matrix(1.00, 0.00, -0.00, -1.00, 201.1, 289.0)">f</text><text xml:space="preserve" font-family="Helvetica-Light" font-size="60.0" fill="#FEFFFF" transform="matrix(1.00, 0.00, -0.00, -1.00, 217.7, 289.0)">o</text><text xml:space="preserve" font-family="Helvetica-Light" font-size="60.0" fill="#FEFFFF" transform="matrix(1.00, 0.00, -0.00, -1.00, 251.1, 289.0)">r</text><text xml:space="preserve" font-family="Helvetica-Light" font-size="60.0" fill="#FEFFFF" transform="matrix(1.00, 0.00, -0.00, -1.00, 272.2, 289.0)">m</text><text xml:space="preserve" font-family="Helvetica-Light" font-size="60.0" fill="#FEFFFF" transform="matrix(1.00, 0.00, -0.00, -1.00, 322.1, 289.0)">a</text><text xml:space="preserve" font-family="Helvetica-Light" font-size="60.0" fill="#FEFFFF" transform="matrix(1.00, 0.00, -0.00, -1.00, 355.5, 289.0)">t</text><text xml:space="preserve" font-family="Helvetica-Light" font-size="60.0" fill="#FEFFFF" transform="matrix(1.00, 0.00, -0.00, -1.00, 372.2, 289.0)">s</text><text xml:space="preserve" font-family="Helvetica-Light" font-size="60.0" fill="#FEFFFF" transform="matrix(1.00, 0.00, -0.00, -1.00, 402.2, 289.0)">”</text></g></svg>