<?xml version="1.0" encoding="UTF-8" standalone="no"?><svg xmlns="http://www.w3.org/2000/svg" xmlns:xlink="http://www.w3.org/1999/xlink" clip-rule="evenodd" stroke-miterlimit="4.00" viewBox="0 0 1024 768"><desc>SVG generated by Keynote</desc><defs></defs><g transform="matrix(1.00, 0.00, -0.00, -1.00, 0.0, 768.0)"><path d="M 0.0 768.0 L 1024.0 768.0 L 1024.0 0.0 L 0.0 0.0 Z M 0.0 768.0 " fill="#000000"></path><text xml:space="preserve" font-family="Helvetica-Light" font-size="29.4" fill="#FEFFFF" transform="matrix(1.00, 0.00, -0.00, -1.00, 79.0, 701.0)"> </text><text xml:space="preserve" font-family="Helvetica-Light" font-size="29.4" fill="#FEFFFF" transform="matrix(1.00, 0.00, -0.00, -1.00, 87.2, 701.0)"> </text><text xml:space="preserve" font-family="Helvetica-Light" font-size="29.4" fill="#FEFFFF" transform="matrix(1.00, 0.00, -0.00, -1.00, 95.3, 701.0)">G</text><text xml:space="preserve" font-family="Helvetica-Light" font-size="29.4" fill="#FEFFFF" transform="matrix(1.00, 0.00, -0.00, -1.00, 118.2, 701.0)">l</text><text xml:space="preserve" font-family="Helvetica-Light" font-size="29.4" fill="#FEFFFF" transform="matrix(1.00, 0.00, -0.00, -1.00, 124.7, 701.0)">o</text><text xml:space="preserve" font-family="Helvetica-Light" font-size="29.4" fill="#FEFFFF" transform="matrix(1.00, 0.00, -0.00, -1.00, 141.1, 701.0)">b</text><text xml:space="preserve" font-family="Helvetica-Light" font-size="29.4" fill="#FEFFFF" transform="matrix(1.00, 0.00, -0.00, -1.00, 159.1, 701.0)">a</text><text xml:space="preserve" font-family="Helvetica-Light" font-size="29.4" fill="#FEFFFF" transform="matrix(1.00, 0.00, -0.00, -1.00, 175.4, 701.0)">l</text><text xml:space="preserve" font-family="Helvetica-Light" font-size="29.4" fill="#FEFFFF" transform="matrix(1.00, 0.00, -0.00, -1.00, 181.9, 701.0)"> </text><text xml:space="preserve" font-family="Helvetica-Light" font-size="29.4" fill="#FEFFFF" transform="matrix(1.00, 0.00, -0.00, -1.00, 190.1, 701.0)">v</text><text xml:space="preserve" font-family="Helvetica-Light" font-size="29.4" fill="#FEFFFF" transform="matrix(1.00, 0.00, -0.00, -1.00, 204.8, 701.0)"> </text><text xml:space="preserve" font-family="Helvetica-Light" font-size="29.4" fill="#FEFFFF" transform="matrix(1.00, 0.00, -0.00, -1.00, 213.0, 701.0)">L</text><text xml:space="preserve" font-family="Helvetica-Light" font-size="29.4" fill="#FEFFFF" transform="matrix(1.00, 0.00, -0.00, -1.00, 229.3, 701.0)">o</text><text xml:space="preserve" font-family="Helvetica-Light" font-size="29.4" fill="#FEFFFF" transform="matrix(1.00, 0.00, -0.00, -1.00, 245.7, 701.0)">c</text><text xml:space="preserve" font-family="Helvetica-Light" font-size="29.4" fill="#FEFFFF" transform="matrix(1.00, 0.00, -0.00, -1.00, 262.0, 701.0)">a</text><text xml:space="preserve" font-family="Helvetica-Light" font-size="29.4" fill="#FEFFFF" transform="matrix(1.00, 0.00, -0.00, -1.00, 278.4, 701.0)">l</text><text xml:space="preserve" font-family="Helvetica-Light" font-size="29.4" fill="#FEFFFF" transform="matrix(1.00, 0.00, -0.00, -1.00, 284.9, 701.0)"> </text><text xml:space="preserve" font-family="Helvetica-Light" font-size="29.4" fill="#FEFFFF" transform="matrix(1.00, 0.00, -0.00, -1.00, 79.0, 635.0)"> </text><text xml:space="preserve" font-family="Helvetica-Light" font-size="29.4" fill="#FEFFFF" transform="matrix(1.00, 0.00, -0.00, -1.00, 87.2, 635.0)"> </text><text xml:space="preserve" font-family="Helvetica-Light" font-size="29.4" fill="#FEFFFF" transform="matrix(1.00, 0.00, -0.00, -1.00, 95.3, 635.0)">T</text><text xml:space="preserve" font-family="Helvetica-Light" font-size="29.4" fill="#FEFFFF" transform="matrix(1.00, 0.00, -0.00, -1.00, 108.4, 635.0)">e</text><text xml:space="preserve" font-family="Helvetica-Light" font-size="29.4" fill="#FEFFFF" transform="matrix(1.00, 0.00, -0.00, -1.00, 124.8, 635.0)">s</text><text xml:space="preserve" font-family="Helvetica-Light" font-size="29.4" fill="#FEFFFF" transform="matrix(1.00, 0.00, -0.00, -1.00, 139.5, 635.0)">t</text><text xml:space="preserve" font-family="Helvetica-Light" font-size="29.4" fill="#FEFFFF" transform="matrix(1.00, 0.00, -0.00, -1.00, 147.6, 635.0)"> </text><text xml:space="preserve" font-family="Helvetica-Light" font-size="29.4" fill="#FEFFFF" transform="matrix(1.00, 0.00, -0.00, -1.00, 155.8, 635.0)">v</text><text xml:space="preserve" font-family="Helvetica-Light" font-size="29.4" fill="#FEFFFF" transform="matrix(1.00, 0.00, -0.00, -1.00, 170.5, 635.0)"> </text><text xml:space="preserve" font-family="Helvetica-Light" font-size="29.4" fill="#FEFFFF" transform="matrix(1.00, 0.00, -0.00, -1.00, 178.7, 635.0)">D</text><text xml:space="preserve" font-family="Helvetica-Light" font-size="29.4" fill="#FEFFFF" transform="matrix(1.00, 0.00, -0.00, -1.00, 199.9, 635.0)">e</text><text xml:space="preserve" font-family="Helvetica-Light" font-size="29.4" fill="#FEFFFF" transform="matrix(1.00, 0.00, -0.00, -1.00, 216.3, 635.0)">v</text><text xml:space="preserve" font-family="Helvetica-Light" font-size="29.4" fill="#FEFFFF" transform="matrix(1.00, 0.00, -0.00, -1.00, 231.0, 635.0)"> </text><text xml:space="preserve" font-family="Helvetica-Light" font-size="29.4" fill="#FEFFFF" transform="matrix(1.00, 0.00, -0.00, -1.00, 239.1, 635.0)">v</text><text xml:space="preserve" font-family="Helvetica-Light" font-size="29.4" fill="#FEFFFF" transform="matrix(1.00, 0.00, -0.00, -1.00, 253.8, 635.0)"> </text><text xml:space="preserve" font-family="Helvetica-Light" font-size="29.4" fill="#FEFFFF" transform="matrix(1.00, 0.00, -0.00, -1.00, 262.0, 635.0)">R</text><text xml:space="preserve" font-family="Helvetica-Light" font-size="29.4" fill="#FEFFFF" transform="matrix(1.00, 0.00, -0.00, -1.00, 281.6, 635.0)">e</text><text xml:space="preserve" font-family="Helvetica-Light" font-size="29.4" fill="#FEFFFF" transform="matrix(1.00, 0.00, -0.00, -1.00, 298.0, 635.0)">a</text><text xml:space="preserve" font-family="Helvetica-Light" font-size="29.4" fill="#FEFFFF" transform="matrix(1.00, 0.00, -0.00, -1.00, 314.3, 635.0)">l</text><text xml:space="preserve" font-family="Helvetica-Light" font-size="29.4" fill="#FEFFFF" transform="matrix(1.00, 0.00, -0.00, -1.00, 320.8, 635.0)"> </text><text xml:space="preserve" font-family="Helvetica-Light" font-size="29.4" fill="#FEFFFF" transform="matrix(1.00, 0.00, -0.00, -1.00, 79.0, 570.0)"> </text><text xml:space="preserve" font-family="Helvetica-Light" font-size="29.4" fill="#FEFFFF" transform="matrix(1.00, 0.00, -0.00, -1.00, 87.2, 570.0)"> </text><text xml:space="preserve" font-family="Helvetica-Light" font-size="29.4" fill="#FEFFFF" transform="matrix(1.00, 0.00, -0.00, -1.00, 95.3, 570.0)">P</text><text xml:space="preserve" font-family="Helvetica-Light" font-size="29.4" fill="#FEFFFF" transform="matrix(1.00, 0.00, -0.00, -1.00, 113.3, 570.0)">a</text><text xml:space="preserve" font-family="Helvetica-Light" font-size="29.4" fill="#FEFFFF" transform="matrix(1.00, 0.00, -0.00, -1.00, 129.7, 570.0)">c</text><text xml:space="preserve" font-family="Helvetica-Light" font-size="29.4" fill="#FEFFFF" transform="matrix(1.00, 0.00, -0.00, -1.00, 146.0, 570.0)">k</text><text xml:space="preserve" font-family="Helvetica-Light" font-size="29.4" fill="#FEFFFF" transform="matrix(1.00, 0.00, -0.00, -1.00, 160.7, 570.0)">a</text><text xml:space="preserve" font-family="Helvetica-Light" font-size="29.4" fill="#FEFFFF" transform="matrix(1.00, 0.00, -0.00, -1.00, 177.0, 570.0)">g</text><text xml:space="preserve" font-family="Helvetica-Light" font-size="29.4" fill="#FEFFFF" transform="matrix(1.00, 0.00, -0.00, -1.00, 195.0, 570.0)">e</text><text xml:space="preserve" font-family="Helvetica-Light" font-size="29.4" fill="#FEFFFF" transform="matrix(1.00, 0.00, -0.00, -1.00, 211.4, 570.0)">/</text><text xml:space="preserve" font-family="Helvetica-Light" font-size="29.4" fill="#FEFFFF" transform="matrix(1.00, 0.00, -0.00, -1.00, 219.5, 570.0)">I</text><text xml:space="preserve" font-family="Helvetica-Light" font-size="29.4" fill="#FEFFFF" transform="matrix(1.00, 0.00, -0.00, -1.00, 227.7, 570.0)">m</text><text xml:space="preserve" font-family="Helvetica-Light" font-size="29.4" fill="#FEFFFF" transform="matrix(1.00, 0.00, -0.00, -1.00, 252.2, 570.0)">p</text><text xml:space="preserve" font-family="Helvetica-Light" font-size="29.4" fill="#FEFFFF" transform="matrix(1.00, 0.00, -0.00, -1.00, 270.2, 570.0)">o</text><text xml:space="preserve" font-family="Helvetica-Light" font-size="29.4" fill="#FEFFFF" transform="matrix(1.00, 0.00, -0.00, -1.00, 286.5, 570.0)">r</text><text xml:space="preserve" font-family="Helvetica-Light" font-size="29.4" fill="#FEFFFF" transform="matrix(1.00, 0.00, -0.00, -1.00, 296.8, 570.0)">t</text><text xml:space="preserve" font-family="Helvetica-Light" font-size="29.4" fill="#FEFFFF" transform="matrix(1.00, 0.00, -0.00, -1.00, 305.0, 570.0)"> </text><text xml:space="preserve" font-family="Helvetica-Light" font-size="29.4" fill="#FEFFFF" transform="matrix(1.00, 0.00, -0.00, -1.00, 313.2, 570.0)">s</text><text xml:space="preserve" font-family="Helvetica-Light" font-size="29.4" fill="#FEFFFF" transform="matrix(1.00, 0.00, -0.00, -1.00, 327.9, 570.0)">y</text><text xml:space="preserve" font-family="Helvetica-Light" font-size="29.4" fill="#FEFFFF" transform="matrix(1.00, 0.00, -0.00, -1.00, 342.6, 570.0)">m</text><text xml:space="preserve" font-family="Helvetica-Light" font-size="29.4" fill="#FEFFFF" transform="matrix(1.00, 0.00, -0.00, -1.00, 367.1, 570.0)">m</text><text xml:space="preserve" font-family="Helvetica-Light" font-size="29.4" fill="#FEFFFF" transform="matrix(1.00, 0.00, -0.00, -1.00, 391.6, 570.0)">e</text><text xml:space="preserve" font-family="Helvetica-Light" font-size="29.4" fill="#FEFFFF" transform="matrix(1.00, 0.00, -0.00, -1.00, 407.9, 570.0)">t</text><text xml:space="preserve" font-family="Helvetica-Light" font-size="29.4" fill="#FEFFFF" transform="matrix(1.00, 0.00, -0.00, -1.00, 416.1, 570.0)">r</text><text xml:space="preserve" font-family="Helvetica-Light" font-size="29.4" fill="#FEFFFF" transform="matrix(1.00, 0.00, -0.00, -1.00, 426.4, 570.0)">y</text><text xml:space="preserve" font-family="Helvetica-Light" font-size="29.4" fill="#FEFFFF" transform="matrix(1.00, 0.00, -0.00, -1.00, 441.1, 570.0)"> </text><text xml:space="preserve" font-family="Helvetica-Light" font-size="29.4" fill="#FEFFFF" transform="matrix(1.00, 0.00, -0.00, -1.00, 79.0, 505.0)"> </text><text xml:space="preserve" font-family="Helvetica-Light" font-size="29.4" fill="#FEFFFF" transform="matrix(1.00, 0.00, -0.00, -1.00, 87.2, 505.0)"> </text><text xml:space="preserve" font-family="Helvetica-Light" font-size="29.4" fill="#FEFFFF" transform="matrix(1.00, 0.00, -0.00, -1.00, 95.3, 505.0)">V</text><text xml:space="preserve" font-family="Helvetica-Light" font-size="29.4" fill="#FEFFFF" transform="matrix(1.00, 0.00, -0.00, -1.00, 111.7, 505.0)">e</text><text xml:space="preserve" font-family="Helvetica-Light" font-size="29.4" fill="#FEFFFF" transform="matrix(1.00, 0.00, -0.00, -1.00, 128.0, 505.0)">n</text><text xml:space="preserve" font-family="Helvetica-Light" font-size="29.4" fill="#FEFFFF" transform="matrix(1.00, 0.00, -0.00, -1.00, 144.4, 505.0)">d</text><text xml:space="preserve" font-family="Helvetica-Light" font-size="29.4" fill="#FEFFFF" transform="matrix(1.00, 0.00, -0.00, -1.00, 162.3, 505.0)">o</text><text xml:space="preserve" font-family="Helvetica-Light" font-size="29.4" fill="#FEFFFF" transform="matrix(1.00, 0.00, -0.00, -1.00, 178.7, 505.0)">r</text><text xml:space="preserve" font-family="Helvetica-Light" font-size="29.4" fill="#FEFFFF" transform="matrix(1.00, 0.00, -0.00, -1.00, 188.5, 505.0)">i</text><text xml:space="preserve" font-family="Helvetica-Light" font-size="29.4" fill="#FEFFFF" transform="matrix(1.00, 0.00, -0.00, -1.00, 195.0, 505.0)">n</text><text xml:space="preserve" font-family="Helvetica-Light" font-size="29.4" fill="#FEFFFF" transform="matrix(1.00, 0.00, -0.00, -1.00, 211.4, 505.0)">g</text><text xml:space="preserve" font-family="Helvetica-Light" font-size="29.4" fill="#FEFFFF" transform="matrix(1.00, 0.00, -0.00, -1.00, 229.3, 505.0)"> </text><text xml:space="preserve" font-family="Helvetica-Light" font-size="29.4" fill="#FEFFFF" transform="matrix(1.00, 0.00, -0.00, -1.00, 79.0, 439.0)"> </text><text xml:space="preserve" font-family="Helvetica-Light" font-size="29.4" fill="#FEFFFF" transform="matrix(1.00, 0.00, -0.00, -1.00, 87.2, 439.0)"> </text><text xml:space="preserve" font-family="Helvetica-Light" font-size="29.4" fill="#FEFFFF" transform="matrix(1.00, 0.00, -0.00, -1.00, 95.3, 439.0)">S</text><text xml:space="preserve" font-family="Helvetica-Light" font-size="29.4" fill="#FEFFFF" transform="matrix(1.00, 0.00, -0.00, -1.00, 113.3, 439.0)">n</text><text xml:space="preserve" font-family="Helvetica-Light" font-size="29.4" fill="#FEFFFF" transform="matrix(1.00, 0.00, -0.00, -1.00, 129.7, 439.0)">a</text><text xml:space="preserve" font-family="Helvetica-Light" font-size="29.4" fill="#FEFFFF" transform="matrix(1.00, 0.00, -0.00, -1.00, 146.0, 439.0)">p</text><text xml:space="preserve" font-family="Helvetica-Light" font-size="29.4" fill="#FEFFFF" transform="matrix(1.00, 0.00, -0.00, -1.00, 164.0, 439.0)">s</text><text xml:space="preserve" font-family="Helvetica-Light" font-size="29.4" fill="#FEFFFF" transform="matrix(1.00, 0.00, -0.00, -1.00, 178.7, 439.0)">h</text><text xml:space="preserve" font-family="Helvetica-Light" font-size="29.4" fill="#FEFFFF" transform="matrix(1.00, 0.00, -0.00, -1.00, 195.0, 439.0)">o</text><text xml:space="preserve" font-family="Helvetica-Light" font-size="29.4" fill="#FEFFFF" transform="matrix(1.00, 0.00, -0.00, -1.00, 211.4, 439.0)">t</text><text xml:space="preserve" font-family="Helvetica-Light" font-size="29.4" fill="#FEFFFF" transform="matrix(1.00, 0.00, -0.00, -1.00, 219.5, 439.0)">s</text><text xml:space="preserve" font-family="Helvetica-Light" font-size="29.4" fill="#FEFFFF" transform="matrix(1.00, 0.00, -0.00, -1.00, 234.2, 439.0)"> </text><text xml:space="preserve" font-family="Helvetica-Light" font-size="29.4" fill="#FEFFFF" transform="matrix(1.00, 0.00, -0.00, -1.00, 79.0, 374.0)"> </text><text xml:space="preserve" font-family="Helvetica-Light" font-size="29.4" fill="#FEFFFF" transform="matrix(1.00, 0.00, -0.00, -1.00, 87.2, 374.0)"> </text><text xml:space="preserve" font-family="Helvetica-Light" font-size="29.4" fill="#FEFFFF" transform="matrix(1.00, 0.00, -0.00, -1.00, 95.3, 374.0)">R</text><text xml:space="preserve" font-family="Helvetica-Light" font-size="29.4" fill="#FEFFFF" transform="matrix(1.00, 0.00, -0.00, -1.00, 115.0, 374.0)">a</text><text xml:space="preserve" font-family="Helvetica-Light" font-size="29.4" fill="#FEFFFF" transform="matrix(1.00, 0.00, -0.00, -1.00, 131.3, 374.0)">n</text><text xml:space="preserve" font-family="Helvetica-Light" font-size="29.4" fill="#FEFFFF" transform="matrix(1.00, 0.00, -0.00, -1.00, 147.6, 374.0)">g</text><text xml:space="preserve" font-family="Helvetica-Light" font-size="29.4" fill="#FEFFFF" transform="matrix(1.00, 0.00, -0.00, -1.00, 165.6, 374.0)">e</text><text xml:space="preserve" font-family="Helvetica-Light" font-size="29.4" fill="#FEFFFF" transform="matrix(1.00, 0.00, -0.00, -1.00, 182.0, 374.0)">s</text><text xml:space="preserve" font-family="Helvetica-Light" font-size="29.4" fill="#FEFFFF" transform="matrix(1.00, 0.00, -0.00, -1.00, 196.7, 374.0)"> </text><text xml:space="preserve" font-family="Helvetica-Light" font-size="29.4" fill="#FEFFFF" transform="matrix(1.00, 0.00, -0.00, -1.00, 79.0, 308.0)"> </text><text xml:space="preserve" font-family="Helvetica-Light" font-size="29.4" fill="#FEFFFF" transform="matrix(1.00, 0.00, -0.00, -1.00, 87.2, 308.0)"> </text><text xml:space="preserve" font-family="Helvetica-Light" font-size="29.4" fill="#FEFFFF" transform="matrix(1.00, 0.00, -0.00, -1.00, 95.3, 308.0)">L</text><text xml:space="preserve" font-family="Helvetica-Light" font-size="29.4" fill="#FEFFFF" transform="matrix(1.00, 0.00, -0.00, -1.00, 111.7, 308.0)">o</text><text xml:space="preserve" font-family="Helvetica-Light" font-size="29.4" fill="#FEFFFF" transform="matrix(1.00, 0.00, -0.00, -1.00, 128.0, 308.0)">c</text><text xml:space="preserve" font-family="Helvetica-Light" font-size="29.4" fill="#FEFFFF" transform="matrix(1.00, 0.00, -0.00, -1.00, 144.4, 308.0)">k</text><text xml:space="preserve" font-family="Helvetica-Light" font-size="29.4" fill="#FEFFFF" transform="matrix(1.00, 0.00, -0.00, -1.00, 159.1, 308.0)">ﬁ</text><text xml:space="preserve" font-family="Helvetica-Light" font-size="29.4" fill="#FEFFFF" transform="matrix(1.00, 0.00, -0.00, -1.00, 173.8, 308.0)">l</text><text xml:space="preserve" font-family="Helvetica-Light" font-size="29.4" fill="#FEFFFF" transform="matrix(1.00, 0.00, -0.00, -1.00, 180.3, 308.0)">e</text><text xml:space="preserve" font-family="Helvetica-Light" font-size="29.4" fill="#FEFFFF" transform="matrix(1.00, 0.00, -0.00, -1.00, 196.7, 308.0)">s</text><text xml:space="preserve" font-family="Helvetica-Light" font-size="29.4" fill="#FEFFFF" transform="matrix(1.00, 0.00, -0.00, -1.00, 211.4, 308.0)"> </text><text xml:space="preserve" font-family="Helvetica-Light" font-size="29.4" fill="#FEFFFF" transform="matrix(1.00, 0.00, -0.00, -1.00, 79.0, 243.0)"> </text><text xml:space="preserve" font-family="Helvetica-Light" font-size="29.4" fill="#FEFFFF" transform="matrix(1.00, 0.00, -0.00, -1.00, 87.2, 243.0)"> </text><text xml:space="preserve" font-family="Helvetica-Light" font-size="29.4" fill="#FEFFFF" transform="matrix(1.00, 0.00, -0.00, -1.00, 95.3, 243.0)">D</text><text xml:space="preserve" font-family="Helvetica-Light" font-size="29.4" fill="#FEFFFF" transform="matrix(1.00, 0.00, -0.00, -1.00, 116.6, 243.0)">o</text><text xml:space="preserve" font-family="Helvetica-Light" font-size="29.4" fill="#FEFFFF" transform="matrix(1.00, 0.00, -0.00, -1.00, 132.9, 243.0)"> </text><text xml:space="preserve" font-family="Helvetica-Light" font-size="29.4" fill="#FEFFFF" transform="matrix(1.00, 0.00, -0.00, -1.00, 141.1, 243.0)">A</text><text xml:space="preserve" font-family="Helvetica-Light" font-size="29.4" fill="#FEFFFF" transform="matrix(1.00, 0.00, -0.00, -1.00, 160.7, 243.0)">p</text><text xml:space="preserve" font-family="Helvetica-Light" font-size="29.4" fill="#FEFFFF" transform="matrix(1.00, 0.00, -0.00, -1.00, 178.7, 243.0)">p</text><text xml:space="preserve" font-family="Helvetica-Light" font-size="29.4" fill="#FEFFFF" transform="matrix(1.00, 0.00, -0.00, -1.00, 196.6, 243.0)">l</text><text xml:space="preserve" font-family="Helvetica-Light" font-size="29.4" fill="#FEFFFF" transform="matrix(1.00, 0.00, -0.00, -1.00, 203.2, 243.0)">i</text><text xml:space="preserve" font-family="Helvetica-Light" font-size="29.4" fill="#FEFFFF" transform="matrix(1.00, 0.00, -0.00, -1.00, 209.7, 243.0)">c</text><text xml:space="preserve" font-family="Helvetica-Light" font-size="29.4" fill="#FEFFFF" transform="matrix(1.00, 0.00, -0.00, -1.00, 226.0, 243.0)">a</text><text xml:space="preserve" font-family="Helvetica-Light" font-size="29.4" fill="#FEFFFF" transform="matrix(1.00, 0.00, -0.00, -1.00, 242.4, 243.0)">t</text><text xml:space="preserve" font-family="Helvetica-Light" font-size="29.4" fill="#FEFFFF" transform="matrix(1.00, 0.00, -0.00, -1.00, 250.5, 243.0)">i</text><text xml:space="preserve" font-family="Helvetica-Light" font-size="29.4" fill="#FEFFFF" transform="matrix(1.00, 0.00, -0.00, -1.00, 257.1, 243.0)">o</text><text xml:space="preserve" font-family="Helvetica-Light" font-size="29.4" fill="#FEFFFF" transform="matrix(1.00, 0.00, -0.00, -1.00, 273.4, 243.0)">n</text><text xml:space="preserve" font-family="Helvetica-Light" font-size="29.4" fill="#FEFFFF" transform="matrix(1.00, 0.00, -0.00, -1.00, 289.8, 243.0)">s</text><text xml:space="preserve" font-family="Helvetica-Light" font-size="29.4" fill="#FEFFFF" transform="matrix(1.00, 0.00, -0.00, -1.00, 304.5, 243.0)"> </text><text xml:space="preserve" font-family="Helvetica-Light" font-size="29.4" fill="#FEFFFF" transform="matrix(1.00, 0.00, -0.00, -1.00, 312.6, 243.0)">n</text><text xml:space="preserve" font-family="Helvetica-Light" font-size="29.4" fill="#FEFFFF" transform="matrix(1.00, 0.00, -0.00, -1.00, 329.0, 243.0)">e</text><text xml:space="preserve" font-family="Helvetica-Light" font-size="29.4" fill="#FEFFFF" transform="matrix(1.00, 0.00, -0.00, -1.00, 345.3, 243.0)">e</text><text xml:space="preserve" font-family="Helvetica-Light" font-size="29.4" fill="#FEFFFF" transform="matrix(1.00, 0.00, -0.00, -1.00, 361.7, 243.0)">d</text><text xml:space="preserve" font-family="Helvetica-Light" font-size="29.4" fill="#FEFFFF" transform="matrix(1.00, 0.00, -0.00, -1.00, 379.6, 243.0)"> </text><text xml:space="preserve" font-family="Helvetica-Light" font-size="29.4" fill="#FEFFFF" transform="matrix(1.00, 0.00, -0.00, -1.00, 387.8, 243.0)">v</text><text xml:space="preserve" font-family="Helvetica-Light" font-size="29.4" fill="#FEFFFF" transform="matrix(1.00, 0.00, -0.00, -1.00, 402.5, 243.0)">e</text><text xml:space="preserve" font-family="Helvetica-Light" font-size="29.4" fill="#FEFFFF" transform="matrix(1.00, 0.00, -0.00, -1.00, 418.9, 243.0)">r</text><text xml:space="preserve" font-family="Helvetica-Light" font-size="29.4" fill="#FEFFFF" transform="matrix(1.00, 0.00, -0.00, -1.00, 428.7, 243.0)">s</text><text xml:space="preserve" font-family="Helvetica-Light" font-size="29.4" fill="#FEFFFF" transform="matrix(1.00, 0.00, -0.00, -1.00, 443.4, 243.0)">i</text><text xml:space="preserve" font-family="Helvetica-Light" font-size="29.4" fill="#FEFFFF" transform="matrix(1.00, 0.00, -0.00, -1.00, 449.9, 243.0)">o</text><text xml:space="preserve" font-family="Helvetica-Light" font-size="29.4" fill="#FEFFFF" transform="matrix(1.00, 0.00, -0.00, -1.00, 466.2, 243.0)">n</text><text xml:space="preserve" font-family="Helvetica-Light" font-size="29.4" fill="#FEFFFF" transform="matrix(1.00, 0.00, -0.00, -1.00, 482.6, 243.0)">s</text><text xml:space="preserve" font-family="Helvetica-Light" font-size="29.4" fill="#FEFFFF" transform="matrix(1.00, 0.00, -0.00, -1.00, 497.3, 243.0)">?</text><text xml:space="preserve" font-family="Helvetica-Light" font-size="29.4" fill="#FEFFFF" transform="matrix(1.00, 0.00, -0.00, -1.00, 512.0, 243.0)"> </text><text xml:space="preserve" font-family="Helvetica-Light" font-size="29.4" fill="#FEFFFF" transform="matrix(1.00, 0.00, -0.00, -1.00, 79.0, 178.0)"> </text><text xml:space="preserve" font-family="Helvetica-Light" font-size="29.4" fill="#FEFFFF" transform="matrix(1.00, 0.00, -0.00, -1.00, 87.2, 178.0)"> </text><text xml:space="preserve" font-family="Helvetica-Light" font-size="29.4" fill="#FEFFFF" transform="matrix(1.00, 0.00, -0.00, -1.00, 95.3, 178.0)">X</text><text xml:space="preserve" font-family="Helvetica-Light" font-size="29.4" fill="#FEFFFF" transform="matrix(1.00, 0.00, -0.00, -1.00, 113.3, 178.0)"> </text><text xml:space="preserve" font-family="Helvetica-Light" font-size="29.4" fill="#FEFFFF" transform="matrix(1.00, 0.00, -0.00, -1.00, 121.5, 178.0)">R</text><text xml:space="preserve" font-family="Helvetica-Light" font-size="29.4" fill="#FEFFFF" transform="matrix(1.00, 0.00, -0.00, -1.00, 141.1, 178.0)">e</text><text xml:space="preserve" font-family="Helvetica-Light" font-size="29.4" fill="#FEFFFF" transform="matrix(1.00, 0.00, -0.00, -1.00, 157.4, 178.0)">p</text><text xml:space="preserve" font-family="Helvetica-Light" font-size="29.4" fill="#FEFFFF" transform="matrix(1.00, 0.00, -0.00, -1.00, 175.4, 178.0)">l</text><text xml:space="preserve" font-family="Helvetica-Light" font-size="29.4" fill="#FEFFFF" transform="matrix(1.00, 0.00, -0.00, -1.00, 181.9, 178.0)">a</text><text xml:space="preserve" font-family="Helvetica-Light" font-size="29.4" fill="#FEFFFF" transform="matrix(1.00, 0.00, -0.00, -1.00, 198.3, 178.0)">c</text><text xml:space="preserve" font-family="Helvetica-Light" font-size="29.4" fill="#FEFFFF" transform="matrix(1.00, 0.00, -0.00, -1.00, 214.6, 178.0)">e</text><text xml:space="preserve" font-family="Helvetica-Light" font-size="29.4" fill="#FEFFFF" transform="matrix(1.00, 0.00, -0.00, -1.00, 231.0, 178.0)">s</text><text xml:space="preserve" font-family="Helvetica-Light" font-size="29.4" fill="#FEFFFF" transform="matrix(1.00, 0.00, -0.00, -1.00, 245.7, 178.0)"> </text><text xml:space="preserve" font-family="Helvetica-Light" font-size="29.4" fill="#FEFFFF" transform="matrix(1.00, 0.00, -0.00, -1.00, 253.8, 178.0)">Y</text><text xml:space="preserve" font-family="Helvetica-Light" font-size="29.4" fill="#FEFFFF" transform="matrix(1.00, 0.00, -0.00, -1.00, 271.8, 178.0)"> </text><text xml:space="preserve" font-family="Helvetica-Light" font-size="29.4" fill="#FEFFFF" transform="matrix(1.00, 0.00, -0.00, -1.00, 280.0, 178.0)">(</text><text xml:space="preserve" font-family="Helvetica-Light" font-size="29.4" fill="#FEFFFF" transform="matrix(1.00, 0.00, -0.00, -1.00, 289.8, 178.0)">p</text><text xml:space="preserve" font-family="Helvetica-Light" font-size="29.4" fill="#FEFFFF" transform="matrix(1.00, 0.00, -0.00, -1.00, 307.7, 178.0)">r</text><text xml:space="preserve" font-family="Helvetica-Light" font-size="29.4" fill="#FEFFFF" transform="matrix(1.00, 0.00, -0.00, -1.00, 317.0, 178.0)">o</text><text xml:space="preserve" font-family="Helvetica-Light" font-size="29.4" fill="#FEFFFF" transform="matrix(1.00, 0.00, -0.00, -1.00, 333.3, 178.0)">p</text><text xml:space="preserve" font-family="Helvetica-Light" font-size="29.4" fill="#FEFFFF" transform="matrix(1.00, 0.00, -0.00, -1.00, 351.3, 178.0)">s</text><text xml:space="preserve" font-family="Helvetica-Light" font-size="29.4" fill="#FEFFFF" transform="matrix(1.00, 0.00, -0.00, -1.00, 366.0, 178.0)"> </text><text xml:space="preserve" font-family="Helvetica-Light" font-size="29.4" fill="#FEFFFF" transform="matrix(1.00, 0.00, -0.00, -1.00, 374.2, 178.0)">t</text><text xml:space="preserve" font-family="Helvetica-Light" font-size="29.4" fill="#FEFFFF" transform="matrix(1.00, 0.00, -0.00, -1.00, 382.3, 178.0)">o</text><text xml:space="preserve" font-family="Helvetica-Light" font-size="29.4" fill="#FEFFFF" transform="matrix(1.00, 0.00, -0.00, -1.00, 398.7, 178.0)"> </text><text xml:space="preserve" font-family="Helvetica-Light" font-size="29.4" fill="#FEFFFF" transform="matrix(1.00, 0.00, -0.00, -1.00, 406.9, 178.0)">P</text><text xml:space="preserve" font-family="Helvetica-Light" font-size="29.4" fill="#FEFFFF" transform="matrix(1.00, 0.00, -0.00, -1.00, 424.8, 178.0)">H</text><text xml:space="preserve" font-family="Helvetica-Light" font-size="29.4" fill="#FEFFFF" transform="matrix(1.00, 0.00, -0.00, -1.00, 446.1, 178.0)">P</text><text xml:space="preserve" font-family="Helvetica-Light" font-size="29.4" fill="#FEFFFF" transform="matrix(1.00, 0.00, -0.00, -1.00, 464.0, 178.0)">'</text><text xml:space="preserve" font-family="Helvetica-Light" font-size="29.4" fill="#FEFFFF" transform="matrix(1.00, 0.00, -0.00, -1.00, 470.5, 178.0)">s</text><text xml:space="preserve" font-family="Helvetica-Light" font-size="29.4" fill="#FEFFFF" transform="matrix(1.00, 0.00, -0.00, -1.00, 485.2, 178.0)"> </text><text xml:space="preserve" font-family="Helvetica-Light" font-size="29.4" fill="#FEFFFF" transform="matrix(1.00, 0.00, -0.00, -1.00, 493.4, 178.0)">c</text><text xml:space="preserve" font-family="Helvetica-Light" font-size="29.4" fill="#FEFFFF" transform="matrix(1.00, 0.00, -0.00, -1.00, 509.8, 178.0)">o</text><text xml:space="preserve" font-family="Helvetica-Light" font-size="29.4" fill="#FEFFFF" transform="matrix(1.00, 0.00, -0.00, -1.00, 526.1, 178.0)">m</text><text xml:space="preserve" font-family="Helvetica-Light" font-size="29.4" fill="#FEFFFF" transform="matrix(1.00, 0.00, -0.00, -1.00, 550.6, 178.0)">p</text><text xml:space="preserve" font-family="Helvetica-Light" font-size="29.4" fill="#FEFFFF" transform="matrix(1.00, 0.00, -0.00, -1.00, 568.6, 178.0)">o</text><text xml:space="preserve" font-family="Helvetica-Light" font-size="29.4" fill="#FEFFFF" transform="matrix(1.00, 0.00, -0.00, -1.00, 584.9, 178.0)">s</text><text xml:space="preserve" font-family="Helvetica-Light" font-size="29.4" fill="#FEFFFF" transform="matrix(1.00, 0.00, -0.00, -1.00, 599.6, 178.0)">e</text><text xml:space="preserve" font-family="Helvetica-Light" font-size="29.4" fill="#FEFFFF" transform="matrix(1.00, 0.00, -0.00, -1.00, 616.0, 178.0)">r</text><text xml:space="preserve" font-family="Helvetica-Light" font-size="29.4" fill="#FEFFFF" transform="matrix(1.00, 0.00, -0.00, -1.00, 625.8, 178.0)">)</text></g></svg>