<?xml version="1.0" encoding="UTF-8" standalone="no"?><svg xmlns="http://www.w3.org/2000/svg" xmlns:xlink="http://www.w3.org/1999/xlink" clip-rule="evenodd" stroke-miterlimit="4.00" viewBox="0 0 1024 768"><desc>SVG generated by Keynote</desc><defs></defs><g transform="matrix(1.00, 0.00, -0.00, -1.00, 0.0, 768.0)"><path d="M 0.0 768.0 L 1024.0 768.0 L 1024.0 0.0 L 0.0 0.0 Z M 0.0 768.0 " fill="#000000"></path><text xml:space="preserve" font-family="Helvetica-Light" font-size="64.8" fill="#FEFFFF" transform="matrix(1.00, 0.00, -0.00, -1.00, 232.0, 446.0)">T</text><text xml:space="preserve" font-family="Helvetica-Light" font-size="64.8" fill="#FEFFFF" transform="matrix(1.00, 0.00, -0.00, -1.00, 268.0, 446.0)">h</text><text xml:space="preserve" font-family="Helvetica-Light" font-size="64.8" fill="#FEFFFF" transform="matrix(1.00, 0.00, -0.00, -1.00, 304.1, 446.0)">e</text><text xml:space="preserve" font-family="Helvetica-Light" font-size="64.8" fill="#FEFFFF" transform="matrix(1.00, 0.00, -0.00, -1.00, 340.1, 446.0)"> </text><text xml:space="preserve" font-family="Helvetica-Light" font-size="64.8" fill="#FEFFFF" transform="matrix(1.00, 0.00, -0.00, -1.00, 358.1, 446.0)">c</text><text xml:space="preserve" font-family="Helvetica-Light" font-size="64.8" fill="#FEFFFF" transform="matrix(1.00, 0.00, -0.00, -1.00, 394.1, 446.0)">u</text><text xml:space="preserve" font-family="Helvetica-Light" font-size="64.8" fill="#FEFFFF" transform="matrix(1.00, 0.00, -0.00, -1.00, 430.2, 446.0)">r</text><text xml:space="preserve" font-family="Helvetica-Light" font-size="64.8" fill="#FEFFFF" transform="matrix(1.00, 0.00, -0.00, -1.00, 451.7, 446.0)">r</text><text xml:space="preserve" font-family="Helvetica-Light" font-size="64.8" fill="#FEFFFF" transform="matrix(1.00, 0.00, -0.00, -1.00, 472.1, 446.0)">e</text><text xml:space="preserve" font-family="Helvetica-Light" font-size="64.8" fill="#FEFFFF" transform="matrix(1.00, 0.00, -0.00, -1.00, 508.2, 446.0)">n</text><text xml:space="preserve" font-family="Helvetica-Light" font-size="64.8" fill="#FEFFFF" transform="matrix(1.00, 0.00, -0.00, -1.00, 544.2, 446.0)">t</text><text xml:space="preserve" font-family="Helvetica-Light" font-size="64.8" fill="#FEFFFF" transform="matrix(1.00, 0.00, -0.00, -1.00, 562.2, 446.0)"> </text><text xml:space="preserve" font-family="Helvetica-Light" font-size="64.8" fill="#FEFFFF" transform="matrix(1.00, 0.00, -0.00, -1.00, 580.2, 446.0)">s</text><text xml:space="preserve" font-family="Helvetica-Light" font-size="64.8" fill="#FEFFFF" transform="matrix(1.00, 0.00, -0.00, -1.00, 612.6, 446.0)">t</text><text xml:space="preserve" font-family="Helvetica-Light" font-size="64.8" fill="#FEFFFF" transform="matrix(1.00, 0.00, -0.00, -1.00, 630.6, 446.0)">a</text><text xml:space="preserve" font-family="Helvetica-Light" font-size="64.8" fill="#FEFFFF" transform="matrix(1.00, 0.00, -0.00, -1.00, 666.7, 446.0)">t</text><text xml:space="preserve" font-family="Helvetica-Light" font-size="64.8" fill="#FEFFFF" transform="matrix(1.00, 0.00, -0.00, -1.00, 684.7, 446.0)">e</text><text xml:space="preserve" font-family="Helvetica-Light" font-size="64.8" fill="#FEFFFF" transform="matrix(1.00, 0.00, -0.00, -1.00, 720.7, 446.0)"> </text><text xml:space="preserve" font-family="Helvetica-Light" font-size="64.8" fill="#FEFFFF" transform="matrix(1.00, 0.00, -0.00, -1.00, 738.7, 446.0)">o</text><text xml:space="preserve" font-family="Helvetica-Light" font-size="64.8" fill="#FEFFFF" transform="matrix(1.00, 0.00, -0.00, -1.00, 774.8, 446.0)">f</text><text xml:space="preserve" font-family="Helvetica-Light" font-size="64.8" fill="#FEFFFF" transform="matrix(1.00, 0.00, -0.00, -1.00, 792.8, 446.0)"> </text><text xml:space="preserve" font-family="Helvetica-Light" font-size="64.8" fill="#FEFFFF" transform="matrix(1.00, 0.00, -0.00, -1.00, 128.0, 360.0)">d</text><text xml:space="preserve" font-family="Helvetica-Light" font-size="64.8" fill="#FEFFFF" transform="matrix(1.00, 0.00, -0.00, -1.00, 167.6, 360.0)">e</text><text xml:space="preserve" font-family="Helvetica-Light" font-size="64.8" fill="#FEFFFF" transform="matrix(1.00, 0.00, -0.00, -1.00, 203.6, 360.0)">p</text><text xml:space="preserve" font-family="Helvetica-Light" font-size="64.8" fill="#FEFFFF" transform="matrix(1.00, 0.00, -0.00, -1.00, 243.2, 360.0)">e</text><text xml:space="preserve" font-family="Helvetica-Light" font-size="64.8" fill="#FEFFFF" transform="matrix(1.00, 0.00, -0.00, -1.00, 279.2, 360.0)">n</text><text xml:space="preserve" font-family="Helvetica-Light" font-size="64.8" fill="#FEFFFF" transform="matrix(1.00, 0.00, -0.00, -1.00, 315.3, 360.0)">d</text><text xml:space="preserve" font-family="Helvetica-Light" font-size="64.8" fill="#FEFFFF" transform="matrix(1.00, 0.00, -0.00, -1.00, 354.9, 360.0)">e</text><text xml:space="preserve" font-family="Helvetica-Light" font-size="64.8" fill="#FEFFFF" transform="matrix(1.00, 0.00, -0.00, -1.00, 390.9, 360.0)">n</text><text xml:space="preserve" font-family="Helvetica-Light" font-size="64.8" fill="#FEFFFF" transform="matrix(1.00, 0.00, -0.00, -1.00, 426.9, 360.0)">c</text><text xml:space="preserve" font-family="Helvetica-Light" font-size="64.8" fill="#FEFFFF" transform="matrix(1.00, 0.00, -0.00, -1.00, 463.0, 360.0)">y</text><text xml:space="preserve" font-family="Helvetica-Light" font-size="64.8" fill="#FEFFFF" transform="matrix(1.00, 0.00, -0.00, -1.00, 495.4, 360.0)"> </text><text xml:space="preserve" font-family="Helvetica-Light" font-size="64.8" fill="#FEFFFF" transform="matrix(1.00, 0.00, -0.00, -1.00, 513.4, 360.0)">m</text><text xml:space="preserve" font-family="Helvetica-Light" font-size="64.8" fill="#FEFFFF" transform="matrix(1.00, 0.00, -0.00, -1.00, 567.3, 360.0)">a</text><text xml:space="preserve" font-family="Helvetica-Light" font-size="64.8" fill="#FEFFFF" transform="matrix(1.00, 0.00, -0.00, -1.00, 603.4, 360.0)">n</text><text xml:space="preserve" font-family="Helvetica-Light" font-size="64.8" fill="#FEFFFF" transform="matrix(1.00, 0.00, -0.00, -1.00, 639.4, 360.0)">a</text><text xml:space="preserve" font-family="Helvetica-Light" font-size="64.8" fill="#FEFFFF" transform="matrix(1.00, 0.00, -0.00, -1.00, 675.4, 360.0)">g</text><text xml:space="preserve" font-family="Helvetica-Light" font-size="64.8" fill="#FEFFFF" transform="matrix(1.00, 0.00, -0.00, -1.00, 715.0, 360.0)">e</text><text xml:space="preserve" font-family="Helvetica-Light" font-size="64.8" fill="#FEFFFF" transform="matrix(1.00, 0.00, -0.00, -1.00, 751.1, 360.0)">m</text><text xml:space="preserve" font-family="Helvetica-Light" font-size="64.8" fill="#FEFFFF" transform="matrix(1.00, 0.00, -0.00, -1.00, 805.0, 360.0)">e</text><text xml:space="preserve" font-family="Helvetica-Light" font-size="64.8" fill="#FEFFFF" transform="matrix(1.00, 0.00, -0.00, -1.00, 841.1, 360.0)">n</text><text xml:space="preserve" font-family="Helvetica-Light" font-size="64.8" fill="#FEFFFF" transform="matrix(1.00, 0.00, -0.00, -1.00, 877.1, 360.0)">t</text><text xml:space="preserve" font-family="Helvetica-Light" font-size="64.8" fill="#FEFFFF" transform="matrix(1.00, 0.00, -0.00, -1.00, 895.1, 360.0)"> </text><text xml:space="preserve" font-family="Helvetica-Light" font-size="64.8" fill="#FEFFFF" transform="matrix(1.00, 0.00, -0.00, -1.00, 133.0, 274.0)">h</text><text xml:space="preserve" font-family="Helvetica-Light" font-size="64.8" fill="#FEFFFF" transform="matrix(1.00, 0.00, -0.00, -1.00, 169.0, 274.0)">a</text><text xml:space="preserve" font-family="Helvetica-Light" font-size="64.8" fill="#FEFFFF" transform="matrix(1.00, 0.00, -0.00, -1.00, 205.1, 274.0)">s</text><text xml:space="preserve" font-family="Helvetica-Light" font-size="64.8" fill="#FEFFFF" transform="matrix(1.00, 0.00, -0.00, -1.00, 237.5, 274.0)"> </text><text xml:space="preserve" font-family="Helvetica-Light" font-size="64.8" fill="#FEFFFF" transform="matrix(1.00, 0.00, -0.00, -1.00, 255.5, 274.0)">r</text><text xml:space="preserve" font-family="Helvetica-Light" font-size="64.8" fill="#FEFFFF" transform="matrix(1.00, 0.00, -0.00, -1.00, 275.9, 274.0)">o</text><text xml:space="preserve" font-family="Helvetica-Light" font-size="64.8" fill="#FEFFFF" transform="matrix(1.00, 0.00, -0.00, -1.00, 311.9, 274.0)">o</text><text xml:space="preserve" font-family="Helvetica-Light" font-size="64.8" fill="#FEFFFF" transform="matrix(1.00, 0.00, -0.00, -1.00, 347.9, 274.0)">m</text><text xml:space="preserve" font-family="Helvetica-Light" font-size="64.8" fill="#FEFFFF" transform="matrix(1.00, 0.00, -0.00, -1.00, 401.9, 274.0)"> </text><text xml:space="preserve" font-family="Helvetica-Light" font-size="64.8" fill="#FEFFFF" transform="matrix(1.00, 0.00, -0.00, -1.00, 419.9, 274.0)">f</text><text xml:space="preserve" font-family="Helvetica-Light" font-size="64.8" fill="#FEFFFF" transform="matrix(1.00, 0.00, -0.00, -1.00, 437.9, 274.0)">o</text><text xml:space="preserve" font-family="Helvetica-Light" font-size="64.8" fill="#FEFFFF" transform="matrix(1.00, 0.00, -0.00, -1.00, 474.0, 274.0)">r</text><text xml:space="preserve" font-family="Helvetica-Light" font-size="64.8" fill="#FEFFFF" transform="matrix(1.00, 0.00, -0.00, -1.00, 495.6, 274.0)"> </text><text xml:space="preserve" font-family="Helvetica-Light" font-size="64.8" fill="#FEFFFF" transform="matrix(1.00, 0.00, -0.00, -1.00, 513.6, 274.0)">i</text><text xml:space="preserve" font-family="Helvetica-Light" font-size="64.8" fill="#FEFFFF" transform="matrix(1.00, 0.00, -0.00, -1.00, 528.0, 274.0)">m</text><text xml:space="preserve" font-family="Helvetica-Light" font-size="64.8" fill="#FEFFFF" transform="matrix(1.00, 0.00, -0.00, -1.00, 581.9, 274.0)">p</text><text xml:space="preserve" font-family="Helvetica-Light" font-size="64.8" fill="#FEFFFF" transform="matrix(1.00, 0.00, -0.00, -1.00, 621.5, 274.0)">r</text><text xml:space="preserve" font-family="Helvetica-Light" font-size="64.8" fill="#FEFFFF" transform="matrix(1.00, 0.00, -0.00, -1.00, 641.9, 274.0)">o</text><text xml:space="preserve" font-family="Helvetica-Light" font-size="64.8" fill="#FEFFFF" transform="matrix(1.00, 0.00, -0.00, -1.00, 678.0, 274.0)">v</text><text xml:space="preserve" font-family="Helvetica-Light" font-size="64.8" fill="#FEFFFF" transform="matrix(1.00, 0.00, -0.00, -1.00, 710.4, 274.0)">e</text><text xml:space="preserve" font-family="Helvetica-Light" font-size="64.8" fill="#FEFFFF" transform="matrix(1.00, 0.00, -0.00, -1.00, 746.4, 274.0)">m</text><text xml:space="preserve" font-family="Helvetica-Light" font-size="64.8" fill="#FEFFFF" transform="matrix(1.00, 0.00, -0.00, -1.00, 800.4, 274.0)">e</text><text xml:space="preserve" font-family="Helvetica-Light" font-size="64.8" fill="#FEFFFF" transform="matrix(1.00, 0.00, -0.00, -1.00, 836.4, 274.0)">n</text><text xml:space="preserve" font-family="Helvetica-Light" font-size="64.8" fill="#FEFFFF" transform="matrix(1.00, 0.00, -0.00, -1.00, 872.4, 274.0)">t</text></g></svg>