<?xml version="1.0" encoding="UTF-8" standalone="no"?><svg xmlns="http://www.w3.org/2000/svg" xmlns:xlink="http://www.w3.org/1999/xlink" clip-rule="evenodd" stroke-miterlimit="4.00" viewBox="0 0 851 72"><desc>SVG generated by Keynote</desc><defs></defs><g transform="matrix(1.00, 0.00, -0.00, -1.00, 0.0, 72.0)"><text xml:space="preserve" font-family="Helvetica-Light" font-size="73.6" fill="#FEFFFF" transform="matrix(1.00, 0.00, -0.00, -1.00, -4.0, 17.0)">P</text><text xml:space="preserve" font-family="Helvetica-Light" font-size="73.6" fill="#FEFFFF" transform="matrix(1.00, 0.00, -0.00, -1.00, 41.0, 17.0)">i</text><text xml:space="preserve" font-family="Helvetica-Light" font-size="73.6" fill="#FEFFFF" transform="matrix(1.00, 0.00, -0.00, -1.00, 57.3, 17.0)">c</text><text xml:space="preserve" font-family="Helvetica-Light" font-size="73.6" fill="#FEFFFF" transform="matrix(1.00, 0.00, -0.00, -1.00, 98.2, 17.0)">k</text><text xml:space="preserve" font-family="Helvetica-Light" font-size="73.6" fill="#FEFFFF" transform="matrix(1.00, 0.00, -0.00, -1.00, 135.0, 17.0)"> </text><text xml:space="preserve" font-family="Helvetica-Light" font-size="73.6" fill="#FEFFFF" transform="matrix(1.00, 0.00, -0.00, -1.00, 155.5, 17.0)">a</text><text xml:space="preserve" font-family="Helvetica-Light" font-size="73.6" fill="#FEFFFF" transform="matrix(1.00, 0.00, -0.00, -1.00, 196.4, 17.0)"> </text><text xml:space="preserve" font-family="Helvetica-Light" font-size="73.6" fill="#FEFFFF" transform="matrix(1.00, 0.00, -0.00, -1.00, 216.9, 17.0)">v</text><text xml:space="preserve" font-family="Helvetica-Light" font-size="73.6" fill="#FEFFFF" transform="matrix(1.00, 0.00, -0.00, -1.00, 253.7, 17.0)">e</text><text xml:space="preserve" font-family="Helvetica-Light" font-size="73.6" fill="#FEFFFF" transform="matrix(1.00, 0.00, -0.00, -1.00, 294.6, 17.0)">r</text><text xml:space="preserve" font-family="Helvetica-Light" font-size="73.6" fill="#FEFFFF" transform="matrix(1.00, 0.00, -0.00, -1.00, 319.1, 17.0)">s</text><text xml:space="preserve" font-family="Helvetica-Light" font-size="73.6" fill="#FEFFFF" transform="matrix(1.00, 0.00, -0.00, -1.00, 355.9, 17.0)">i</text><text xml:space="preserve" font-family="Helvetica-Light" font-size="73.6" fill="#FEFFFF" transform="matrix(1.00, 0.00, -0.00, -1.00, 372.2, 17.0)">o</text><text xml:space="preserve" font-family="Helvetica-Light" font-size="73.6" fill="#FEFFFF" transform="matrix(1.00, 0.00, -0.00, -1.00, 413.2, 17.0)">n</text><text xml:space="preserve" font-family="Helvetica-Light" font-size="73.6" fill="#FEFFFF" transform="matrix(1.00, 0.00, -0.00, -1.00, 454.1, 17.0)"> </text><text xml:space="preserve" font-family="Helvetica-Light" font-size="73.6" fill="#FEFFFF" transform="matrix(1.00, 0.00, -0.00, -1.00, 474.5, 17.0)">o</text><text xml:space="preserve" font-family="Helvetica-Light" font-size="73.6" fill="#FEFFFF" transform="matrix(1.00, 0.00, -0.00, -1.00, 515.5, 17.0)">f</text><text xml:space="preserve" font-family="Helvetica-Light" font-size="73.6" fill="#FEFFFF" transform="matrix(1.00, 0.00, -0.00, -1.00, 535.9, 17.0)"> </text><text xml:space="preserve" font-family="Helvetica-Light" font-size="73.6" fill="#FEFFFF" transform="matrix(1.00, 0.00, -0.00, -1.00, 556.4, 17.0)">D</text><text xml:space="preserve" font-family="Helvetica-Light" font-size="73.6" fill="#FEFFFF" transform="matrix(1.00, 0.00, -0.00, -1.00, 609.5, 17.0)"> </text><text xml:space="preserve" font-family="Helvetica-Light" font-size="73.6" fill="#FEFFFF" transform="matrix(1.00, 0.00, -0.00, -1.00, 630.0, 17.0)">f</text><text xml:space="preserve" font-family="Helvetica-Light" font-size="73.6" fill="#FEFFFF" transform="matrix(1.00, 0.00, -0.00, -1.00, 650.5, 17.0)">o</text><text xml:space="preserve" font-family="Helvetica-Light" font-size="73.6" fill="#FEFFFF" transform="matrix(1.00, 0.00, -0.00, -1.00, 691.4, 17.0)">r</text><text xml:space="preserve" font-family="Helvetica-Light" font-size="73.6" fill="#FEFFFF" transform="matrix(1.00, 0.00, -0.00, -1.00, 715.9, 17.0)"> </text><text xml:space="preserve" font-family="Helvetica-Light" font-size="73.6" fill="#FEFFFF" transform="matrix(1.00, 0.00, -0.00, -1.00, 736.3, 17.0)">y</text><text xml:space="preserve" font-family="Helvetica-Light" font-size="73.6" fill="#FEFFFF" transform="matrix(1.00, 0.00, -0.00, -1.00, 773.1, 17.0)">o</text><text xml:space="preserve" font-family="Helvetica-Light" font-size="73.6" fill="#FEFFFF" transform="matrix(1.00, 0.00, -0.00, -1.00, 814.1, 17.0)">u</text></g></svg>