<?xml version="1.0" encoding="UTF-8" standalone="no"?><svg xmlns="http://www.w3.org/2000/svg" xmlns:xlink="http://www.w3.org/1999/xlink" clip-rule="evenodd" stroke-miterlimit="4.00" viewBox="0 0 1024 768"><desc>SVG generated by Keynote</desc><defs></defs><g transform="matrix(1.00, 0.00, -0.00, -1.00, 0.0, 768.0)"><path d="M 0.0 768.0 L 1024.0 768.0 L 1024.0 0.0 L 0.0 0.0 Z M 0.0 768.0 " fill="#000000"></path><text xml:space="preserve" font-family="Helvetica-Light" font-size="64.8" fill="#FEFFFF" transform="matrix(1.00, 0.00, -0.00, -1.00, 143.0, 446.0)">D</text><text xml:space="preserve" font-family="Helvetica-Light" font-size="64.8" fill="#FEFFFF" transform="matrix(1.00, 0.00, -0.00, -1.00, 189.8, 446.0)">o</text><text xml:space="preserve" font-family="Helvetica-Light" font-size="64.8" fill="#FEFFFF" transform="matrix(1.00, 0.00, -0.00, -1.00, 225.8, 446.0)">n</text><text xml:space="preserve" font-family="Helvetica-Light" font-size="64.8" fill="#FEFFFF" transform="matrix(1.00, 0.00, -0.00, -1.00, 261.8, 446.0)">’</text><text xml:space="preserve" font-family="Helvetica-Light" font-size="64.8" fill="#FEFFFF" transform="matrix(1.00, 0.00, -0.00, -1.00, 275.1, 446.0)">t</text><text xml:space="preserve" font-family="Helvetica-Light" font-size="64.8" fill="#FEFFFF" transform="matrix(1.00, 0.00, -0.00, -1.00, 293.1, 446.0)"> </text><text xml:space="preserve" font-family="Helvetica-Light" font-size="64.8" fill="#FEFFFF" transform="matrix(1.00, 0.00, -0.00, -1.00, 311.1, 446.0)">d</text><text xml:space="preserve" font-family="Helvetica-Light" font-size="64.8" fill="#FEFFFF" transform="matrix(1.00, 0.00, -0.00, -1.00, 350.7, 446.0)">i</text><text xml:space="preserve" font-family="Helvetica-Light" font-size="64.8" fill="#FEFFFF" transform="matrix(1.00, 0.00, -0.00, -1.00, 365.1, 446.0)">s</text><text xml:space="preserve" font-family="Helvetica-Light" font-size="64.8" fill="#FEFFFF" transform="matrix(1.00, 0.00, -0.00, -1.00, 397.5, 446.0)">m</text><text xml:space="preserve" font-family="Helvetica-Light" font-size="64.8" fill="#FEFFFF" transform="matrix(1.00, 0.00, -0.00, -1.00, 451.4, 446.0)">i</text><text xml:space="preserve" font-family="Helvetica-Light" font-size="64.8" fill="#FEFFFF" transform="matrix(1.00, 0.00, -0.00, -1.00, 465.8, 446.0)">s</text><text xml:space="preserve" font-family="Helvetica-Light" font-size="64.8" fill="#FEFFFF" transform="matrix(1.00, 0.00, -0.00, -1.00, 498.2, 446.0)">s</text><text xml:space="preserve" font-family="Helvetica-Light" font-size="64.8" fill="#FEFFFF" transform="matrix(1.00, 0.00, -0.00, -1.00, 530.6, 446.0)"> </text><text xml:space="preserve" font-family="Helvetica-Light" font-size="64.8" fill="#FEFFFF" transform="matrix(1.00, 0.00, -0.00, -1.00, 548.6, 446.0)">a</text><text xml:space="preserve" font-family="Helvetica-Light" font-size="64.8" fill="#FEFFFF" transform="matrix(1.00, 0.00, -0.00, -1.00, 584.7, 446.0)">l</text><text xml:space="preserve" font-family="Helvetica-Light" font-size="64.8" fill="#FEFFFF" transform="matrix(1.00, 0.00, -0.00, -1.00, 599.1, 446.0)">t</text><text xml:space="preserve" font-family="Helvetica-Light" font-size="64.8" fill="#FEFFFF" transform="matrix(1.00, 0.00, -0.00, -1.00, 617.1, 446.0)">e</text><text xml:space="preserve" font-family="Helvetica-Light" font-size="64.8" fill="#FEFFFF" transform="matrix(1.00, 0.00, -0.00, -1.00, 653.1, 446.0)">r</text><text xml:space="preserve" font-family="Helvetica-Light" font-size="64.8" fill="#FEFFFF" transform="matrix(1.00, 0.00, -0.00, -1.00, 675.9, 446.0)">n</text><text xml:space="preserve" font-family="Helvetica-Light" font-size="64.8" fill="#FEFFFF" transform="matrix(1.00, 0.00, -0.00, -1.00, 711.9, 446.0)">a</text><text xml:space="preserve" font-family="Helvetica-Light" font-size="64.8" fill="#FEFFFF" transform="matrix(1.00, 0.00, -0.00, -1.00, 747.9, 446.0)">t</text><text xml:space="preserve" font-family="Helvetica-Light" font-size="64.8" fill="#FEFFFF" transform="matrix(1.00, 0.00, -0.00, -1.00, 765.9, 446.0)">i</text><text xml:space="preserve" font-family="Helvetica-Light" font-size="64.8" fill="#FEFFFF" transform="matrix(1.00, 0.00, -0.00, -1.00, 780.3, 446.0)">v</text><text xml:space="preserve" font-family="Helvetica-Light" font-size="64.8" fill="#FEFFFF" transform="matrix(1.00, 0.00, -0.00, -1.00, 812.7, 446.0)">e</text><text xml:space="preserve" font-family="Helvetica-Light" font-size="64.8" fill="#FEFFFF" transform="matrix(1.00, 0.00, -0.00, -1.00, 848.7, 446.0)">s</text><text xml:space="preserve" font-family="Helvetica-Light" font-size="64.8" fill="#FEFFFF" transform="matrix(1.00, 0.00, -0.00, -1.00, 881.1, 446.0)"> </text><text xml:space="preserve" font-family="Helvetica-Light" font-size="64.8" fill="#FEFFFF" transform="matrix(1.00, 0.00, -0.00, -1.00, 186.0, 360.0)">b</text><text xml:space="preserve" font-family="Helvetica-Light" font-size="64.8" fill="#FEFFFF" transform="matrix(1.00, 0.00, -0.00, -1.00, 225.6, 360.0)">a</text><text xml:space="preserve" font-family="Helvetica-Light" font-size="64.8" fill="#FEFFFF" transform="matrix(1.00, 0.00, -0.00, -1.00, 261.6, 360.0)">s</text><text xml:space="preserve" font-family="Helvetica-Light" font-size="64.8" fill="#FEFFFF" transform="matrix(1.00, 0.00, -0.00, -1.00, 294.0, 360.0)">e</text><text xml:space="preserve" font-family="Helvetica-Light" font-size="64.8" fill="#FEFFFF" transform="matrix(1.00, 0.00, -0.00, -1.00, 330.1, 360.0)">d</text><text xml:space="preserve" font-family="Helvetica-Light" font-size="64.8" fill="#FEFFFF" transform="matrix(1.00, 0.00, -0.00, -1.00, 369.6, 360.0)"> </text><text xml:space="preserve" font-family="Helvetica-Light" font-size="64.8" fill="#FEFFFF" transform="matrix(1.00, 0.00, -0.00, -1.00, 387.7, 360.0)">o</text><text xml:space="preserve" font-family="Helvetica-Light" font-size="64.8" fill="#FEFFFF" transform="matrix(1.00, 0.00, -0.00, -1.00, 423.7, 360.0)">n</text><text xml:space="preserve" font-family="Helvetica-Light" font-size="64.8" fill="#FEFFFF" transform="matrix(1.00, 0.00, -0.00, -1.00, 459.7, 360.0)">l</text><text xml:space="preserve" font-family="Helvetica-Light" font-size="64.8" fill="#FEFFFF" transform="matrix(1.00, 0.00, -0.00, -1.00, 474.1, 360.0)">y</text><text xml:space="preserve" font-family="Helvetica-Light" font-size="64.8" fill="#FEFFFF" transform="matrix(1.00, 0.00, -0.00, -1.00, 506.5, 360.0)"> </text><text xml:space="preserve" font-family="Helvetica-Light" font-size="64.8" fill="#FEFFFF" transform="matrix(1.00, 0.00, -0.00, -1.00, 524.5, 360.0)">o</text><text xml:space="preserve" font-family="Helvetica-Light" font-size="64.8" fill="#FEFFFF" transform="matrix(1.00, 0.00, -0.00, -1.00, 560.5, 360.0)">n</text><text xml:space="preserve" font-family="Helvetica-Light" font-size="64.8" fill="#FEFFFF" transform="matrix(1.00, 0.00, -0.00, -1.00, 596.6, 360.0)"> </text><text xml:space="preserve" font-family="Helvetica-Light" font-size="64.8" fill="#FEFFFF" transform="matrix(1.00, 0.00, -0.00, -1.00, 614.6, 360.0)">e</text><text xml:space="preserve" font-family="Helvetica-Light" font-size="64.8" fill="#FEFFFF" transform="matrix(1.00, 0.00, -0.00, -1.00, 650.6, 360.0)">x</text><text xml:space="preserve" font-family="Helvetica-Light" font-size="64.8" fill="#FEFFFF" transform="matrix(1.00, 0.00, -0.00, -1.00, 683.0, 360.0)">i</text><text xml:space="preserve" font-family="Helvetica-Light" font-size="64.8" fill="#FEFFFF" transform="matrix(1.00, 0.00, -0.00, -1.00, 697.4, 360.0)">s</text><text xml:space="preserve" font-family="Helvetica-Light" font-size="64.8" fill="#FEFFFF" transform="matrix(1.00, 0.00, -0.00, -1.00, 729.8, 360.0)">t</text><text xml:space="preserve" font-family="Helvetica-Light" font-size="64.8" fill="#FEFFFF" transform="matrix(1.00, 0.00, -0.00, -1.00, 747.8, 360.0)">i</text><text xml:space="preserve" font-family="Helvetica-Light" font-size="64.8" fill="#FEFFFF" transform="matrix(1.00, 0.00, -0.00, -1.00, 762.2, 360.0)">n</text><text xml:space="preserve" font-family="Helvetica-Light" font-size="64.8" fill="#FEFFFF" transform="matrix(1.00, 0.00, -0.00, -1.00, 798.2, 360.0)">g</text><text xml:space="preserve" font-family="Helvetica-Light" font-size="64.8" fill="#FEFFFF" transform="matrix(1.00, 0.00, -0.00, -1.00, 837.8, 360.0)"> </text><text xml:space="preserve" font-family="Helvetica-Light" font-size="64.8" fill="#FEFFFF" transform="matrix(1.00, 0.00, -0.00, -1.00, 334.0, 274.0)">e</text><text xml:space="preserve" font-family="Helvetica-Light" font-size="64.8" fill="#FEFFFF" transform="matrix(1.00, 0.00, -0.00, -1.00, 370.0, 274.0)">x</text><text xml:space="preserve" font-family="Helvetica-Light" font-size="64.8" fill="#FEFFFF" transform="matrix(1.00, 0.00, -0.00, -1.00, 402.4, 274.0)">p</text><text xml:space="preserve" font-family="Helvetica-Light" font-size="64.8" fill="#FEFFFF" transform="matrix(1.00, 0.00, -0.00, -1.00, 442.0, 274.0)">e</text><text xml:space="preserve" font-family="Helvetica-Light" font-size="64.8" fill="#FEFFFF" transform="matrix(1.00, 0.00, -0.00, -1.00, 478.1, 274.0)">r</text><text xml:space="preserve" font-family="Helvetica-Light" font-size="64.8" fill="#FEFFFF" transform="matrix(1.00, 0.00, -0.00, -1.00, 499.6, 274.0)">i</text><text xml:space="preserve" font-family="Helvetica-Light" font-size="64.8" fill="#FEFFFF" transform="matrix(1.00, 0.00, -0.00, -1.00, 514.0, 274.0)">e</text><text xml:space="preserve" font-family="Helvetica-Light" font-size="64.8" fill="#FEFFFF" transform="matrix(1.00, 0.00, -0.00, -1.00, 550.0, 274.0)">n</text><text xml:space="preserve" font-family="Helvetica-Light" font-size="64.8" fill="#FEFFFF" transform="matrix(1.00, 0.00, -0.00, -1.00, 586.1, 274.0)">c</text><text xml:space="preserve" font-family="Helvetica-Light" font-size="64.8" fill="#FEFFFF" transform="matrix(1.00, 0.00, -0.00, -1.00, 622.1, 274.0)">e</text><text xml:space="preserve" font-family="Helvetica-Light" font-size="64.8" fill="#FEFFFF" transform="matrix(1.00, 0.00, -0.00, -1.00, 658.1, 274.0)">s</text></g></svg>