<?xml version="1.0" encoding="UTF-8" standalone="no"?><svg xmlns="http://www.w3.org/2000/svg" xmlns:xlink="http://www.w3.org/1999/xlink" clip-rule="evenodd" stroke-miterlimit="4.00" viewBox="0 0 1024 768"><desc>SVG generated by Keynote</desc><defs></defs><g transform="matrix(1.00, 0.00, -0.00, -1.00, 0.0, 768.0)"><path d="M 0.0 768.0 L 1024.0 768.0 L 1024.0 0.0 L 0.0 0.0 Z M 0.0 768.0 " fill="#000000"></path><text xml:space="preserve" font-family="Helvetica-Light" font-size="76.0" fill="#FEFFFF" transform="matrix(1.00, 0.00, -0.00, -1.00, 193.0, 410.0)">T</text><text xml:space="preserve" font-family="Helvetica-Light" font-size="76.0" fill="#FEFFFF" transform="matrix(1.00, 0.00, -0.00, -1.00, 228.9, 410.0)">y</text><text xml:space="preserve" font-family="Helvetica-Light" font-size="76.0" fill="#FEFFFF" transform="matrix(1.00, 0.00, -0.00, -1.00, 266.9, 410.0)">p</text><text xml:space="preserve" font-family="Helvetica-Light" font-size="76.0" fill="#FEFFFF" transform="matrix(1.00, 0.00, -0.00, -1.00, 313.3, 410.0)">e</text><text xml:space="preserve" font-family="Helvetica-Light" font-size="76.0" fill="#FEFFFF" transform="matrix(1.00, 0.00, -0.00, -1.00, 355.6, 410.0)"> </text><text xml:space="preserve" font-family="Helvetica-Light" font-size="76.0" fill="#FEFFFF" transform="matrix(1.00, 0.00, -0.00, -1.00, 376.7, 410.0)">c</text><text xml:space="preserve" font-family="Helvetica-Light" font-size="76.0" fill="#FEFFFF" transform="matrix(1.00, 0.00, -0.00, -1.00, 418.9, 410.0)">o</text><text xml:space="preserve" font-family="Helvetica-Light" font-size="76.0" fill="#FEFFFF" transform="matrix(1.00, 0.00, -0.00, -1.00, 461.2, 410.0)">n</text><text xml:space="preserve" font-family="Helvetica-Light" font-size="76.0" fill="#FEFFFF" transform="matrix(1.00, 0.00, -0.00, -1.00, 503.5, 410.0)">ﬂ</text><text xml:space="preserve" font-family="Helvetica-Light" font-size="76.0" fill="#FEFFFF" transform="matrix(1.00, 0.00, -0.00, -1.00, 541.5, 410.0)">i</text><text xml:space="preserve" font-family="Helvetica-Light" font-size="76.0" fill="#FEFFFF" transform="matrix(1.00, 0.00, -0.00, -1.00, 558.3, 410.0)">c</text><text xml:space="preserve" font-family="Helvetica-Light" font-size="76.0" fill="#FEFFFF" transform="matrix(1.00, 0.00, -0.00, -1.00, 600.6, 410.0)">t</text><text xml:space="preserve" font-family="Helvetica-Light" font-size="76.0" fill="#FEFFFF" transform="matrix(1.00, 0.00, -0.00, -1.00, 621.7, 410.0)">s</text><text xml:space="preserve" font-family="Helvetica-Light" font-size="76.0" fill="#FEFFFF" transform="matrix(1.00, 0.00, -0.00, -1.00, 659.7, 410.0)"> </text><text xml:space="preserve" font-family="Helvetica-Light" font-size="76.0" fill="#FEFFFF" transform="matrix(1.00, 0.00, -0.00, -1.00, 680.8, 410.0)">f</text><text xml:space="preserve" font-family="Helvetica-Light" font-size="76.0" fill="#FEFFFF" transform="matrix(1.00, 0.00, -0.00, -1.00, 702.0, 410.0)">r</text><text xml:space="preserve" font-family="Helvetica-Light" font-size="76.0" fill="#FEFFFF" transform="matrix(1.00, 0.00, -0.00, -1.00, 725.9, 410.0)">o</text><text xml:space="preserve" font-family="Helvetica-Light" font-size="76.0" fill="#FEFFFF" transform="matrix(1.00, 0.00, -0.00, -1.00, 768.2, 410.0)">m</text><text xml:space="preserve" font-family="Helvetica-Light" font-size="76.0" fill="#FEFFFF" transform="matrix(1.00, 0.00, -0.00, -1.00, 831.5, 410.0)"> </text><text xml:space="preserve" font-family="Helvetica-Light" font-size="76.0" fill="#FEFFFF" transform="matrix(1.00, 0.00, -0.00, -1.00, 104.0, 301.0)">t</text><text xml:space="preserve" font-family="Helvetica-Light" font-size="76.0" fill="#FEFFFF" transform="matrix(1.00, 0.00, -0.00, -1.00, 125.1, 301.0)">r</text><text xml:space="preserve" font-family="Helvetica-Light" font-size="76.0" fill="#FEFFFF" transform="matrix(1.00, 0.00, -0.00, -1.00, 150.4, 301.0)">a</text><text xml:space="preserve" font-family="Helvetica-Light" font-size="76.0" fill="#FEFFFF" transform="matrix(1.00, 0.00, -0.00, -1.00, 192.7, 301.0)">n</text><text xml:space="preserve" font-family="Helvetica-Light" font-size="76.0" fill="#FEFFFF" transform="matrix(1.00, 0.00, -0.00, -1.00, 234.9, 301.0)">s</text><text xml:space="preserve" font-family="Helvetica-Light" font-size="76.0" fill="#FEFFFF" transform="matrix(1.00, 0.00, -0.00, -1.00, 272.9, 301.0)">i</text><text xml:space="preserve" font-family="Helvetica-Light" font-size="76.0" fill="#FEFFFF" transform="matrix(1.00, 0.00, -0.00, -1.00, 289.8, 301.0)">t</text><text xml:space="preserve" font-family="Helvetica-Light" font-size="76.0" fill="#FEFFFF" transform="matrix(1.00, 0.00, -0.00, -1.00, 310.9, 301.0)">i</text><text xml:space="preserve" font-family="Helvetica-Light" font-size="76.0" fill="#FEFFFF" transform="matrix(1.00, 0.00, -0.00, -1.00, 327.8, 301.0)">v</text><text xml:space="preserve" font-family="Helvetica-Light" font-size="76.0" fill="#FEFFFF" transform="matrix(1.00, 0.00, -0.00, -1.00, 365.8, 301.0)">e</text><text xml:space="preserve" font-family="Helvetica-Light" font-size="76.0" fill="#FEFFFF" transform="matrix(1.00, 0.00, -0.00, -1.00, 408.1, 301.0)"> </text><text xml:space="preserve" font-family="Helvetica-Light" font-size="76.0" fill="#FEFFFF" transform="matrix(1.00, 0.00, -0.00, -1.00, 429.2, 301.0)">d</text><text xml:space="preserve" font-family="Helvetica-Light" font-size="76.0" fill="#FEFFFF" transform="matrix(1.00, 0.00, -0.00, -1.00, 475.6, 301.0)">e</text><text xml:space="preserve" font-family="Helvetica-Light" font-size="76.0" fill="#FEFFFF" transform="matrix(1.00, 0.00, -0.00, -1.00, 517.9, 301.0)">p</text><text xml:space="preserve" font-family="Helvetica-Light" font-size="76.0" fill="#FEFFFF" transform="matrix(1.00, 0.00, -0.00, -1.00, 564.3, 301.0)">e</text><text xml:space="preserve" font-family="Helvetica-Light" font-size="76.0" fill="#FEFFFF" transform="matrix(1.00, 0.00, -0.00, -1.00, 606.6, 301.0)">n</text><text xml:space="preserve" font-family="Helvetica-Light" font-size="76.0" fill="#FEFFFF" transform="matrix(1.00, 0.00, -0.00, -1.00, 648.8, 301.0)">d</text><text xml:space="preserve" font-family="Helvetica-Light" font-size="76.0" fill="#FEFFFF" transform="matrix(1.00, 0.00, -0.00, -1.00, 695.3, 301.0)">e</text><text xml:space="preserve" font-family="Helvetica-Light" font-size="76.0" fill="#FEFFFF" transform="matrix(1.00, 0.00, -0.00, -1.00, 737.5, 301.0)">n</text><text xml:space="preserve" font-family="Helvetica-Light" font-size="76.0" fill="#FEFFFF" transform="matrix(1.00, 0.00, -0.00, -1.00, 779.8, 301.0)">c</text><text xml:space="preserve" font-family="Helvetica-Light" font-size="76.0" fill="#FEFFFF" transform="matrix(1.00, 0.00, -0.00, -1.00, 822.0, 301.0)">i</text><text xml:space="preserve" font-family="Helvetica-Light" font-size="76.0" fill="#FEFFFF" transform="matrix(1.00, 0.00, -0.00, -1.00, 838.9, 301.0)">e</text><text xml:space="preserve" font-family="Helvetica-Light" font-size="76.0" fill="#FEFFFF" transform="matrix(1.00, 0.00, -0.00, -1.00, 881.2, 301.0)">s</text></g></svg>