<?xml version="1.0" encoding="UTF-8" standalone="no"?><svg xmlns="http://www.w3.org/2000/svg" xmlns:xlink="http://www.w3.org/1999/xlink" clip-rule="evenodd" stroke-miterlimit="4.00" viewBox="0 0 247 126"><desc>SVG generated by Keynote</desc><defs><pattern id="D29C1E73-8328-4DA1-87AF-740116D10D07" patternUnits="userSpaceOnUse" width="245" height="245" viewBox="0 0 245 245" patternTransform="matrix(0.522449, 0.000000, 0.000000, -0.522449, 1.418282, 124.836500)"><image xlink:href="../../F331FD29-0DD8-4E14-A296-62D677D9B31D/assets/685F098D1C3CBF8685A35DBC1733C644.jpeg" width="245.00" height="245.00"></image></pattern></defs><g transform="matrix(1.00, 0.00, -0.00, -1.00, 0.0, 126.0)"><g><clipPath id="clip-240"><path d="M 1.4 124.8 L 245.2 124.8 L 245.2 2.0 L 1.4 2.0 Z M 1.4 124.8 "></path></clipPath><g clip-path="url(#clip-240)"><path d="M 1.4 2.0 L 245.2 2.0 L 245.2 124.8 L 1.4 124.8 Z M 1.4 2.0 " fill="url(#D29C1E73-8328-4DA1-87AF-740116D10D07)"></path><path d="M 1.4 124.8 L 245.2 124.8 L 245.2 2.0 L 1.4 2.0 Z M 1.4 124.8 " fill="#04599E" fill-opacity="0.85"></path></g></g><g><clipPath id="clip-241"><path d="M -1.1 2.0 L 247.7 2.0 L 247.7 124.8 L -1.1 124.8 Z M -1.1 2.0 "></path></clipPath><g clip-path="url(#clip-241)"><text xml:space="preserve" font-family="Helvetica-Light" font-size="26.0" fill="#FEFFFF" transform="matrix(1.00, 0.00, -0.00, -1.00, 42.0, 54.0)">L</text><text xml:space="preserve" font-family="Helvetica-Light" font-size="26.0" fill="#FEFFFF" transform="matrix(1.00, 0.00, -0.00, -1.00, 56.5, 54.0)">e</text><text xml:space="preserve" font-family="Helvetica-Light" font-size="26.0" fill="#FEFFFF" transform="matrix(1.00, 0.00, -0.00, -1.00, 70.9, 54.0)">s</text><text xml:space="preserve" font-family="Helvetica-Light" font-size="26.0" fill="#FEFFFF" transform="matrix(1.00, 0.00, -0.00, -1.00, 83.9, 54.0)">s</text><text xml:space="preserve" font-family="Helvetica-Light" font-size="26.0" fill="#FEFFFF" transform="matrix(1.00, 0.00, -0.00, -1.00, 96.9, 54.0)"> </text><text xml:space="preserve" font-family="Helvetica-Light" font-size="26.0" fill="#FEFFFF" transform="matrix(1.00, 0.00, -0.00, -1.00, 104.1, 54.0)">c</text><text xml:space="preserve" font-family="Helvetica-Light" font-size="26.0" fill="#FEFFFF" transform="matrix(1.00, 0.00, -0.00, -1.00, 118.6, 54.0)">h</text><text xml:space="preserve" font-family="Helvetica-Light" font-size="26.0" fill="#FEFFFF" transform="matrix(1.00, 0.00, -0.00, -1.00, 133.1, 54.0)">a</text><text xml:space="preserve" font-family="Helvetica-Light" font-size="26.0" fill="#FEFFFF" transform="matrix(1.00, 0.00, -0.00, -1.00, 147.5, 54.0)">n</text><text xml:space="preserve" font-family="Helvetica-Light" font-size="26.0" fill="#FEFFFF" transform="matrix(1.00, 0.00, -0.00, -1.00, 162.0, 54.0)">g</text><text xml:space="preserve" font-family="Helvetica-Light" font-size="26.0" fill="#FEFFFF" transform="matrix(1.00, 0.00, -0.00, -1.00, 177.9, 54.0)">e</text><text xml:space="preserve" font-family="Helvetica-Light" font-size="26.0" fill="#FEFFFF" transform="matrix(1.00, 0.00, -0.00, -1.00, 192.3, 54.0)">s</text></g></g></g></svg>